# https://github.com/mikedh/trimesh
v -0.57466663 0.01240758 1.12505566
v -0.86619459 0.01237097 2.21606288
v -0.59248428 0.01237097 2.21606288
v -0.59248428 0.01197551 2.23476586
v -0.59248428 0.01189495 2.23855099
v -0.59248428 0.00569941 2.25324614
v -0.59248428 0.00445445 2.25614065
v -0.59248428 -0.01375868 2.26237504
v -0.57466663 -0.06240758 1.12505566
v -0.57466663 0.01240758 0.41634630
v -0.86622772 0.01237097 1.12505566
v -0.87766533 0.01212930 1.12505566
v -0.88870630 0.01189495 2.21606288
v -0.88870630 0.01165328 2.23855099
v -0.86619459 0.01189495 2.23855099
v -0.88870630 0.00445445 2.25614065
v -0.59248428 -0.03624132 2.26237504
v -0.88870630 -0.01375868 2.26237504
v -0.59248428 -0.06237097 2.21606288
v -0.86619459 -0.06237097 2.21606288
v -0.86622772 -0.06237097 1.12505566
v -0.57466663 -0.06240758 0.41545567
v -0.59248428 -0.05445445 2.25614065
v -0.59248428 -0.06064266 2.24166812
v -0.59248428 -0.06189495 2.23855099
v -0.57466663 0.01237097 0.03404843
v -0.86622772 0.01237097 0.03404843
v -0.88873936 0.01189495 0.03404843
v -0.88873936 0.01189495 1.12505566
v -0.90616031 0.00445445 2.23855099
v -0.90407771 0.00213295 2.25391415
v -0.88870630 -0.03624132 2.26237504
v -0.90616031 -0.01375868 2.25614065
v -0.88870630 -0.06189495 2.21606288
v -0.86619459 -0.06189495 2.23855099
v -0.88870630 -0.06165328 2.23855099
v -0.88873936 -0.06189495 1.12505566
v -0.86622772 -0.06237097 0.03404843
v -0.57466663 -0.06237097 0.03404843
v -0.88870630 -0.05445445 2.25614065
v -0.57466663 0.01189495 0.01156032
v -0.86622772 0.01189495 0.01156032
v -0.88873936 0.01164596 0.01156032
v -0.89759856 0.00811611 1.12505566
v -0.90616031 0.00445445 0.01156032
v -0.91237499 -0.01375868 2.23855099
v -0.90616031 -0.03624132 2.25614065
v -0.90407771 -0.05213295 2.25391415
v -0.90616031 -0.05445445 2.23855099
v -0.88873936 -0.06189495 0.03404843
v -0.88873936 -0.06164596 0.01156032
v -0.86622772 -0.06189495 0.01156032
v -0.57466663 -0.06189495 0.01156032
v -0.57466663 0.00475470 -0.00536147
v -0.88873936 0.00445445 -0.00602934
v -0.90411077 0.00214027 -0.00380284
v -0.91234193 -0.01375136 0.01156032
v -0.91237499 -0.01375868 1.12505566
v -0.91237499 -0.03624132 2.23855099
v -0.90616031 -0.05445445 0.01156032
v -0.90411077 -0.05214027 -0.00380284
v -0.88873936 -0.05445445 -0.00602934
v -0.57466663 -0.06159469 0.01066969
v -0.57466663 0.00445445 -0.00602934
v -0.88873936 -0.01375136 -0.01226373
v -0.90616031 -0.01375136 -0.00602934
v -0.91234193 -0.03624864 0.01156032
v -0.91237499 -0.03624132 1.12505566
v -0.90616031 -0.03624864 -0.00602934
v -0.88873936 -0.03624864 -0.01226373
v -0.57466663 -0.05445445 -0.00602934
v -0.57466663 -0.01375136 -0.01226373
v -0.57466663 -0.03624864 -0.01226373
f 1 2 3
f 1 3 4
f 1 4 5
f 1 5 6
f 1 6 7
f 1 7 8
f 1 8 17
f 1 17 9
f 1 9 22
f 1 22 39
f 1 39 53
f 1 53 63
f 1 63 71
f 1 71 73
f 1 73 72
f 1 72 64
f 1 64 54
f 1 54 41
f 1 41 26
f 1 26 10
f 1 10 27
f 1 27 11
f 1 11 2
f 2 4 3
f 2 11 12
f 2 12 13
f 2 13 14
f 2 14 15
f 2 15 4
f 4 15 5
f 5 15 6
f 6 15 16
f 6 16 7
f 7 16 18
f 7 18 8
f 8 18 32
f 8 32 17
f 9 19 20
f 9 20 21
f 9 21 38
f 9 38 22
f 9 17 23
f 9 23 24
f 9 24 25
f 9 25 19
f 10 26 27
f 11 27 12
f 12 27 28
f 12 28 29
f 12 29 13
f 13 30 14
f 13 29 30
f 14 30 31
f 14 31 16
f 14 16 15
f 16 31 18
f 17 32 40
f 17 40 23
f 18 31 33
f 18 33 47
f 18 47 32
f 19 25 35
f 19 35 20
f 20 34 37
f 20 37 21
f 20 35 36
f 20 36 34
f 21 37 50
f 21 50 38
f 22 38 39
f 23 40 24
f 24 35 25
f 24 40 35
f 26 41 42
f 26 42 27
f 27 42 43
f 27 43 28
f 28 44 29
f 28 43 45
f 28 45 44
f 29 44 30
f 30 46 31
f 30 44 45
f 30 45 58
f 30 58 46
f 31 46 33
f 32 47 48
f 32 48 40
f 33 46 59
f 33 59 47
f 34 36 49
f 34 49 37
f 35 40 36
f 36 40 48
f 36 48 49
f 37 49 60
f 37 60 50
f 38 50 51
f 38 51 52
f 38 52 53
f 38 53 39
f 41 54 42
f 42 54 55
f 42 55 43
f 43 55 56
f 43 56 45
f 45 56 57
f 45 57 58
f 46 58 68
f 46 68 59
f 47 59 48
f 48 59 49
f 49 59 68
f 49 68 60
f 50 60 51
f 51 60 61
f 51 61 62
f 51 62 52
f 52 63 53
f 52 62 63
f 54 64 55
f 55 64 72
f 55 72 65
f 55 65 56
f 56 65 66
f 56 66 57
f 57 66 69
f 57 69 67
f 57 67 68
f 57 68 58
f 60 68 67
f 60 67 61
f 61 67 69
f 61 69 70
f 61 70 62
f 62 70 73
f 62 73 71
f 62 71 63
f 65 72 73
f 65 73 70
f 65 70 69
f 65 69 66

