# https://github.com/mikedh/trimesh
v 0.91237499 -0.01375910 1.12506920
v 0.90931445 -0.00479977 1.12506920
v 0.91237499 -0.03624090 1.12506920
v 0.91237499 -0.01375910 0.01134253
v 0.90613832 0.00445635 1.12506920
v 0.90613832 0.00445635 0.01134253
v 0.90613832 -0.05445635 1.12506920
v 0.91237499 -0.03624090 0.01134253
v 0.90613832 -0.01375910 -0.00613944
v 0.90411727 0.00213768 -0.00402385
v 0.89730312 0.00823113 1.12506920
v 0.88869886 0.01165349 0.01134253
v 0.88869886 0.01189463 0.03383540
v 0.89759186 -0.05811984 1.12506920
v 0.90613832 -0.05445635 0.01134253
v 0.90411727 -0.05213768 -0.00402385
v 0.90613832 -0.03624090 -0.00613944
v 0.88869886 -0.01375910 -0.01226373
v 0.88869886 0.00445635 -0.00613944
v 0.88869886 0.01189463 1.12506920
v 0.86623549 0.01189463 0.01134253
v 0.43879545 0.02237500 0.28125590
v 0.86623549 0.01236764 0.03383540
v 0.50630118 0.02237500 0.34884562
v 0.88869886 -0.06189463 1.12506920
v 0.88869886 -0.06189463 0.03383540
v 0.88869886 -0.06165349 0.01134253
v 0.88869886 -0.05445635 -0.00613944
v 0.88869886 -0.03624090 -0.01226373
v 0.32243612 -0.01375910 -0.01226373
v 0.32243612 -0.01067064 -0.01126152
v 0.32243612 0.00445635 -0.00613944
v 0.50630118 0.02237500 1.12506920
v 0.32243612 0.01189463 0.01134253
v 0.34876858 0.02222661 0.25876316
v 0.37128971 0.02221734 0.25876316
v 0.39375311 0.02206894 0.25876316
v 0.32243612 0.02225443 0.26266041
v 0.32243612 0.02237500 0.28125590
v 0.50630118 -0.07237500 1.12506920
v 0.50630118 -0.07237500 0.34884562
v 0.86623549 -0.06236764 0.03383540
v 0.86623549 -0.06189463 0.01134253
v 0.43879545 -0.07237500 0.28125590
v 0.32243612 -0.06063327 0.00833610
v 0.32243612 -0.05445635 -0.00613944
v 0.32243612 -0.03624090 -0.01226373
v 0.39375311 0.02237500 1.12506920
v 0.32243612 0.02222661 0.25876316
v 0.32243612 0.02237500 0.37133836
v 0.39375311 -0.07237500 1.12506920
v 0.39375311 -0.07206894 0.25876316
v 0.37128971 -0.07221734 0.25876316
v 0.34876858 -0.07222661 0.25876316
v 0.32243612 -0.06189463 0.01134253
v 0.32243612 -0.07237500 0.28125590
v 0.38070242 0.02117857 1.12506920
v 0.32243612 0.02232863 0.39383116
v 0.38734324 -0.07179070 1.12506920
v 0.32243612 -0.07237500 0.39004523
v 0.32243612 -0.07222661 0.25876316
v 0.37764182 0.01506657 1.12506920
v 0.32243612 0.02114147 0.40942023
v 0.38070242 -0.07117857 1.12506920
v 0.32243612 -0.07232863 0.39383116
v 0.37452352 0.00874124 1.12506920
v 0.32243612 0.00980783 0.41899632
v 0.37013479 -0.01375910 1.12506920
v 0.37452352 -0.05874124 1.12506920
v 0.32243612 -0.07114147 0.40942023
v 0.32243612 -0.07134552 0.40719319
v 0.32243612 -0.01375910 0.42322764
v 0.37013479 -0.03624090 1.12506920
v 0.37227140 -0.04731485 1.12506920
v 0.32243612 -0.06220069 0.41788287
v 0.32243612 -0.03624090 0.42322764
v 0.32243612 -0.05980783 0.41899632
f 1 2 5
f 1 5 11
f 1 11 20
f 1 20 33
f 1 33 48
f 1 48 57
f 1 57 62
f 1 62 66
f 1 66 68
f 1 68 73
f 1 73 74
f 1 74 69
f 1 69 64
f 1 64 59
f 1 59 51
f 1 51 40
f 1 40 25
f 1 25 14
f 1 14 7
f 1 7 3
f 1 3 8
f 1 8 4
f 1 4 2
f 2 4 6
f 2 6 5
f 3 7 15
f 3 15 8
f 4 8 17
f 4 17 9
f 4 9 10
f 4 10 6
f 5 6 11
f 6 10 12
f 6 12 13
f 6 13 11
f 7 14 15
f 8 15 16
f 8 16 17
f 9 17 29
f 9 29 18
f 9 18 10
f 10 18 19
f 10 19 12
f 11 13 20
f 12 19 21
f 12 21 22
f 12 22 23
f 12 23 13
f 13 23 24
f 13 24 33
f 13 33 20
f 14 25 26
f 14 26 15
f 15 26 27
f 15 27 16
f 16 28 29
f 16 29 17
f 16 27 28
f 18 29 47
f 18 47 30
f 18 30 31
f 18 31 19
f 19 31 32
f 19 32 34
f 19 34 21
f 21 34 49
f 21 49 35
f 21 35 36
f 21 36 37
f 21 37 22
f 22 38 39
f 22 39 50
f 22 50 48
f 22 48 33
f 22 33 24
f 22 24 23
f 22 37 36
f 22 36 35
f 22 35 38
f 25 40 41
f 25 41 26
f 26 41 42
f 26 42 27
f 27 43 28
f 27 42 44
f 27 44 43
f 28 43 45
f 28 45 46
f 28 46 47
f 28 47 29
f 30 47 46
f 30 46 45
f 30 45 55
f 30 55 61
f 30 61 56
f 30 56 60
f 30 60 65
f 30 65 71
f 30 71 70
f 30 70 75
f 30 75 77
f 30 77 76
f 30 76 72
f 30 72 67
f 30 67 63
f 30 63 58
f 30 58 50
f 30 50 39
f 30 39 38
f 30 38 49
f 30 49 34
f 30 34 32
f 30 32 31
f 35 49 38
f 40 51 60
f 40 60 56
f 40 56 44
f 40 44 41
f 41 44 42
f 43 52 53
f 43 53 54
f 43 54 61
f 43 61 55
f 43 55 45
f 43 44 52
f 44 56 61
f 44 61 54
f 44 54 53
f 44 53 52
f 48 50 58
f 48 58 57
f 51 59 60
f 57 58 63
f 57 63 62
f 59 64 60
f 60 64 65
f 62 63 66
f 63 67 68
f 63 68 66
f 64 69 70
f 64 70 71
f 64 71 65
f 67 72 68
f 68 72 76
f 68 76 73
f 69 74 70
f 70 74 73
f 70 73 75
f 73 76 77
f 73 77 75

