# https://github.com/mikedh/trimesh
v -0.30261815 -0.03624090 -0.01237504
v -0.30261815 -0.05445635 -0.00615057
v -0.30261815 -0.01375910 -0.01237504
v 0.32243612 -0.03624090 -0.01237504
v 0.32243612 -0.05136788 -0.00721648
v -0.30261815 -0.05482733 -0.00529790
v 0.32243612 -0.05445635 -0.00615057
v -0.30261815 0.00353815 -0.00649162
v 0.32243612 -0.01375910 -0.01237504
v -0.30261815 -0.06189463 0.01128620
v 0.32243612 -0.06063327 0.00830191
v -0.30261815 0.00445635 -0.00615057
v 0.32243612 0.00445635 -0.00615057
v -0.30261815 -0.07222661 0.25872736
v 0.32243612 -0.06189463 0.01128620
v -0.30261815 0.01152364 0.01039094
v 0.32243612 0.00571770 -0.00320899
v -0.30261815 -0.07223588 0.25987843
v 0.32243612 -0.07222661 0.25872736
v -0.30261815 0.01189463 0.01128620
v 0.32243612 0.01189463 0.01128620
v -0.30261815 -0.07237500 0.28123753
v 0.32243612 -0.07237500 0.28123753
v -0.30261815 0.02222661 0.25872736
v 0.32243612 0.02222661 0.25872736
v -0.30261815 -0.07237500 0.37123543
v 0.32243612 -0.07237500 0.38990870
v -0.30261815 0.02237500 0.28123753
v 0.32243612 0.02225443 0.26252168
v -0.30261815 -0.07213386 0.39374560
v 0.32243612 -0.07232863 0.39374560
v -0.30261815 0.02237500 0.37123543
v 0.32243612 0.02237500 0.28123753
v -0.30261815 -0.07094671 0.40645022
v 0.32243612 -0.07134552 0.40717495
v -0.30261815 0.02216169 0.39259453
v 0.32243612 0.02232863 0.39374560
v 0.32243612 0.02237500 0.37123543
v -0.30261815 -0.05874124 0.41177930
v 0.32243612 -0.07114147 0.40934922
v 0.32243612 -0.06220069 0.41783318
v 0.32243612 -0.05980783 0.41889902
v -0.30261815 0.02213386 0.39374560
v 0.32243612 0.02114147 0.40934922
v -0.30261815 -0.03624090 0.41574414
v 0.32243612 -0.03657479 0.42307703
v -0.30261815 0.02094671 0.40645022
v 0.32243612 0.00980783 0.41889902
v -0.30261815 -0.01375910 0.41574414
v 0.32231375 -0.03624090 0.42311968
v 0.32243612 -0.03624090 0.42311968
v -0.30261815 0.00934410 0.41156613
v 0.32243612 0.00541164 0.41970905
v -0.30261815 0.00874124 0.41177930
v -0.30261815 -0.01261832 0.41561627
v 0.32231375 -0.01375910 0.42311968
v 0.32243612 -0.01375910 0.42311968
v 0.32243612 -0.01342521 0.42307703
f 1 2 6
f 1 6 10
f 1 10 14
f 1 14 18
f 1 18 22
f 1 22 26
f 1 26 30
f 1 30 34
f 1 34 39
f 1 39 45
f 1 45 49
f 1 49 55
f 1 55 54
f 1 54 52
f 1 52 47
f 1 47 43
f 1 43 36
f 1 36 32
f 1 32 28
f 1 28 24
f 1 24 20
f 1 20 16
f 1 16 12
f 1 12 8
f 1 8 3
f 1 3 9
f 1 9 4
f 1 4 5
f 1 5 2
f 2 5 7
f 2 7 6
f 3 8 9
f 4 9 13
f 4 13 17
f 4 17 21
f 4 21 25
f 4 25 29
f 4 29 33
f 4 33 38
f 4 38 37
f 4 37 44
f 4 44 48
f 4 48 53
f 4 53 58
f 4 58 57
f 4 57 51
f 4 51 46
f 4 46 42
f 4 42 41
f 4 41 40
f 4 40 35
f 4 35 31
f 4 31 27
f 4 27 23
f 4 23 19
f 4 19 15
f 4 15 11
f 4 11 7
f 4 7 5
f 6 7 11
f 6 11 10
f 8 12 13
f 8 13 9
f 10 11 15
f 10 15 19
f 10 19 14
f 12 16 17
f 12 17 13
f 14 19 18
f 16 20 21
f 16 21 17
f 18 19 23
f 18 23 22
f 20 24 25
f 20 25 21
f 22 23 27
f 22 27 26
f 24 28 29
f 24 29 25
f 26 27 30
f 27 31 30
f 28 32 38
f 28 38 33
f 28 33 29
f 30 31 35
f 30 35 34
f 32 36 37
f 32 37 38
f 34 35 40
f 34 40 41
f 34 41 42
f 34 42 39
f 36 43 37
f 37 43 44
f 39 42 46
f 39 46 45
f 43 47 44
f 44 47 48
f 45 46 50
f 45 50 56
f 45 56 49
f 46 51 50
f 47 52 48
f 48 52 54
f 48 54 53
f 49 56 55
f 50 51 57
f 50 57 56
f 53 54 55
f 53 55 58
f 55 56 58
f 56 57 58

