# https://github.com/mikedh/trimesh
v -0.37005693 -0.01375910 0.50610521
v -0.37005693 -0.03624090 0.50610521
v -0.37447654 0.00874124 0.50610521
v -0.37447654 0.00874124 1.74308181
v -0.37020935 -0.01315625 1.74308181
v -0.37010049 -0.01375910 1.74308181
v -0.37443303 -0.05859285 0.50610521
v -0.37010049 -0.03624090 1.74308181
v -0.37447654 -0.05874124 1.74308181
v -0.38068143 0.02116930 0.50610521
v -0.38068143 0.02116930 1.74308181
v -0.37447654 -0.05874124 0.50610521
v -0.38050729 -0.07084469 1.74308181
v -0.39376615 0.02237500 0.50610521
v -0.38732178 0.02179070 1.12507784
v -0.39376615 0.02237500 1.74308181
v -0.38068143 -0.07116930 0.50610521
v -0.38068143 -0.07116930 1.74308181
v -0.50623795 0.02237500 0.50610521
v -0.50623795 0.02237500 1.74308181
v -0.39376615 -0.07237500 0.50610521
v -0.38102978 -0.07120639 1.74308181
v -0.52859731 0.02116930 0.50610521
v -0.52792240 0.02120639 1.74308181
v -0.50623795 -0.07237500 0.50610521
v -0.39376615 -0.07237500 1.74308181
v -0.53978789 0.01997287 0.50610521
v -0.53978789 0.01997287 1.74308181
v -0.52883680 0.02114147 1.74308181
v -0.52853200 0.02116930 1.74308181
v -0.52853200 -0.07116930 0.50610521
v -0.50623795 -0.07237500 1.74308181
v -0.51721080 -0.07179070 1.12519892
v -0.57466590 0.01240474 0.50610521
v -0.59247503 0.01237691 1.12519892
v -0.59247503 0.01237691 1.74308181
v -0.53970082 -0.06998214 0.50610521
v -0.52853200 -0.07116930 1.74308181
v -0.53425791 -0.07056644 1.12519892
v -0.57466590 -0.06240474 0.50610521
v -0.59247503 -0.06237691 1.12519892
v -0.59247503 -0.06237691 1.74308181
v -0.53978789 -0.06997287 0.50634742
v -0.53978789 -0.06997287 1.74308181
f 1 2 7
f 1 7 12
f 1 12 17
f 1 17 21
f 1 21 25
f 1 25 31
f 1 31 37
f 1 37 40
f 1 40 34
f 1 34 27
f 1 27 23
f 1 23 19
f 1 19 14
f 1 14 10
f 1 10 3
f 1 3 4
f 1 4 5
f 1 5 6
f 1 6 8
f 1 8 2
f 2 8 9
f 2 9 7
f 3 10 11
f 3 11 4
f 4 11 16
f 4 16 20
f 4 20 24
f 4 24 30
f 4 30 29
f 4 29 28
f 4 28 36
f 4 36 42
f 4 42 44
f 4 44 38
f 4 38 32
f 4 32 26
f 4 26 22
f 4 22 18
f 4 18 13
f 4 13 9
f 4 9 8
f 4 8 6
f 4 6 5
f 7 9 12
f 9 13 12
f 10 14 15
f 10 15 11
f 11 15 16
f 12 13 17
f 13 18 17
f 14 19 20
f 14 20 16
f 14 16 15
f 17 18 22
f 17 22 21
f 19 23 24
f 19 24 20
f 21 22 26
f 21 26 32
f 21 32 25
f 23 27 28
f 23 28 29
f 23 29 30
f 23 30 24
f 25 32 33
f 25 33 31
f 27 34 35
f 27 35 36
f 27 36 28
f 31 33 38
f 31 38 39
f 31 39 37
f 32 38 33
f 34 40 41
f 34 41 35
f 35 41 42
f 35 42 36
f 37 43 40
f 37 39 43
f 38 44 39
f 39 44 43
f 40 43 41
f 41 43 44
f 41 44 42

