# https://github.com/mikedh/trimesh
v -0.30264652 -0.01375910 2.26237504
v -0.30264652 -0.03624090 2.26237504
v -0.30264652 0.00445635 2.25617431
v -0.59244666 -0.01375910 2.26237504
v -0.59244666 -0.03624090 2.26237504
v -0.30264652 -0.05445635 2.25617431
v -0.30264652 0.00482733 2.25531024
v -0.59244666 0.00445635 2.25617431
v -0.59244666 -0.05445635 2.25617431
v -0.30264652 -0.06189463 2.23874123
v -0.30264652 0.01189463 2.23874123
v -0.59244666 0.01189463 2.23874123
v -0.59244666 -0.06189463 2.23874123
v -0.30264652 -0.07222661 1.99127211
v -0.30264652 0.02222661 1.99127211
v -0.34875238 0.02222661 1.99127211
v -0.37125203 0.02221734 1.99127211
v -0.39375170 0.02206894 1.99127211
v -0.43875102 0.02237500 1.96875644
v -0.48372195 0.02189272 1.94629160
v -0.50624999 0.02237500 1.90126026
v -0.59244666 0.01197810 2.23492934
v -0.59244666 -0.06229344 2.21998662
v -0.50624999 -0.07237500 1.90126026
v -0.48372195 -0.07189272 1.94629160
v -0.43875102 -0.07237500 1.96875644
v -0.39375170 -0.07206894 1.99127211
v -0.37125203 -0.07221734 1.99127211
v -0.34875238 -0.07222661 1.99127211
v -0.30264652 -0.07237500 1.96875644
v -0.30264652 0.02223588 1.99015396
v -0.30264652 0.02237500 1.96875644
v -0.46122230 0.02237500 1.94629160
v -0.50624999 0.02237500 1.74314229
v -0.52792683 0.02121567 1.74314229
v -0.52852265 0.02117857 1.83376408
v -0.52724588 0.02117857 1.85627975
v -0.59244666 0.01236764 2.21622556
v -0.59244666 -0.06236764 2.21622556
v -0.52724588 -0.07117857 1.85627975
v -0.52852265 -0.07117857 1.83376408
v -0.50624999 -0.07237500 1.74314229
v -0.46122230 -0.07237500 1.94629160
v -0.30264652 -0.07237500 1.87879542
v -0.30264652 0.02237500 1.87879542
v -0.39375170 0.02237500 1.74314229
v -0.52852265 0.02117857 1.74314229
v -0.52883476 0.02115075 1.74314229
v -0.53978669 0.01997287 1.83376408
v -0.59244666 0.01237691 1.89749920
v -0.59244666 -0.06237691 1.87879542
v -0.53978669 -0.06997287 1.83376408
v -0.52852265 -0.07117857 1.74314229
v -0.39375170 -0.07237500 1.74314229
v -0.30264652 -0.07216169 1.85739789
v -0.30264652 0.02213386 1.85627975
v -0.38067181 0.02117857 1.74314229
v -0.53978669 0.01997287 1.74314229
v -0.59244666 0.01237691 1.74314229
v -0.59244666 -0.06237691 1.74314229
v -0.53978669 -0.06997287 1.74314229
v -0.38101228 -0.07121567 1.74314229
v -0.30264652 -0.07213386 1.85627975
v -0.30264652 0.02094671 1.84357338
v -0.37465679 0.00908440 1.74314229
v -0.38067181 -0.07117857 1.74314229
v -0.30264652 -0.07094671 1.84357338
v -0.30264652 0.00874124 1.83823666
v -0.37448654 0.00874124 1.74314229
v -0.38050159 -0.07084469 1.74314229
v -0.37448654 -0.05874124 1.74314229
v -0.30264652 -0.05934410 1.83843997
v -0.30264652 -0.01375910 1.83422153
v -0.37008875 -0.01375910 1.74314229
v -0.37020224 -0.01314697 1.74314229
v -0.37434468 -0.05813839 1.74314229
v -0.30264652 -0.05874124 1.83823666
v -0.30264652 -0.03624090 1.83422153
v -0.37008875 -0.03624090 1.74314229
v -0.30264652 -0.03738168 1.83437394
f 1 2 6
f 1 6 10
f 1 10 14
f 1 14 30
f 1 30 44
f 1 44 55
f 1 55 63
f 1 63 67
f 1 67 72
f 1 72 77
f 1 77 80
f 1 80 78
f 1 78 73
f 1 73 68
f 1 68 64
f 1 64 56
f 1 56 45
f 1 45 32
f 1 32 31
f 1 31 15
f 1 15 11
f 1 11 7
f 1 7 3
f 1 3 8
f 1 8 4
f 1 4 5
f 1 5 2
f 2 5 9
f 2 9 6
f 3 7 8
f 4 8 12
f 4 12 22
f 4 22 38
f 4 38 50
f 4 50 59
f 4 59 60
f 4 60 51
f 4 51 39
f 4 39 23
f 4 23 13
f 4 13 9
f 4 9 5
f 6 9 13
f 6 13 10
f 7 11 12
f 7 12 8
f 10 13 29
f 10 29 14
f 11 15 16
f 11 16 12
f 12 16 17
f 12 17 18
f 12 18 19
f 12 19 20
f 12 20 21
f 12 21 22
f 13 23 24
f 13 24 25
f 13 25 26
f 13 26 27
f 13 27 28
f 13 28 29
f 14 29 26
f 14 26 30
f 15 31 16
f 16 31 19
f 16 19 17
f 17 19 18
f 19 31 32
f 19 32 45
f 19 45 46
f 19 46 34
f 19 34 21
f 19 21 33
f 19 33 20
f 20 33 21
f 21 34 35
f 21 35 36
f 21 36 37
f 21 37 38
f 21 38 22
f 23 39 24
f 24 40 41
f 24 41 53
f 24 53 42
f 24 42 54
f 24 54 44
f 24 44 30
f 24 30 26
f 24 26 43
f 24 43 25
f 24 39 40
f 25 43 26
f 26 29 28
f 26 28 27
f 34 46 57
f 34 57 65
f 34 65 69
f 34 69 75
f 34 75 74
f 34 74 79
f 34 79 76
f 34 76 71
f 34 71 70
f 34 70 66
f 34 66 62
f 34 62 54
f 34 54 42
f 34 42 53
f 34 53 61
f 34 61 60
f 34 60 59
f 34 59 58
f 34 58 48
f 34 48 47
f 34 47 35
f 35 47 36
f 36 47 48
f 36 48 49
f 36 49 38
f 36 38 37
f 38 49 50
f 39 51 52
f 39 52 41
f 39 41 40
f 41 52 61
f 41 61 53
f 44 54 55
f 45 56 46
f 46 56 57
f 48 58 49
f 49 58 59
f 49 59 50
f 51 60 61
f 51 61 52
f 54 62 63
f 54 63 55
f 56 64 57
f 57 64 65
f 62 66 63
f 63 66 67
f 64 68 69
f 64 69 65
f 66 70 67
f 67 70 71
f 67 71 72
f 68 73 74
f 68 74 75
f 68 75 69
f 71 76 77
f 71 77 72
f 73 78 79
f 73 79 74
f 76 79 77
f 77 79 80
f 78 80 79

