mtllib material.mtl
usemtl material_0
v -0.38050000 0.01000000 2.00000000
v -0.38050000 0.01000000 2.00000000
v -0.38050000 0.01000000 2.00000000
v -0.38050000 0.00000000 2.00000000
v -0.38050000 0.00000000 2.00000000
v 0.38050000 0.00000000 2.00000000
v 0.38050000 0.00000000 2.00000000
v 0.38050000 0.01000000 2.00000000
v 0.38050000 0.01000000 2.00000000
v 0.38050000 0.01000000 2.00000000
v -0.53250000 0.01000000 1.84800000
v -0.53250000 0.01000000 1.84800000
v -0.53250000 0.01000000 1.84800000
v -0.53250000 0.00000000 1.84800000
v -0.53250000 0.00000000 1.84800000
v -0.53203100 0.00000000 1.85993000
v -0.53203100 0.01000000 1.85993000
v -0.53203100 0.01000000 1.85993000
v -0.53062900 0.00000000 1.87178000
v -0.53062900 0.01000000 1.87178000
v -0.53062900 0.01000000 1.87178000
v -0.52830000 0.00000000 1.88348000
v -0.52830000 0.01000000 1.88348000
v -0.52830000 0.01000000 1.88348000
v -0.52506100 0.00000000 1.89497000
v -0.52506100 0.01000000 1.89497000
v -0.52506100 0.01000000 1.89497000
v -0.52093000 0.00000000 1.90617000
v -0.52093000 0.01000000 1.90617000
v -0.52093000 0.01000000 1.90617000
v -0.51593300 0.00000000 1.91701000
v -0.51593300 0.01000000 1.91701000
v -0.51593300 0.01000000 1.91701000
v -0.51010100 0.00000000 1.92742000
v -0.51010100 0.01000000 1.92742000
v -0.51010100 0.01000000 1.92742000
v -0.50347100 0.00000000 1.93734000
v -0.50347100 0.01000000 1.93734000
v -0.50347100 0.01000000 1.93734000
v -0.49608200 0.00000000 1.94672000
v -0.49608200 0.01000000 1.94672000
v -0.49608200 0.01000000 1.94672000
v -0.48798000 0.00000000 1.95548000
v -0.48798000 0.01000000 1.95548000
v -0.48798000 0.01000000 1.95548000
v -0.47921600 0.00000000 1.96358000
v -0.47921600 0.01000000 1.96358000
v -0.47921600 0.01000000 1.96358000
v -0.46984300 0.00000000 1.97097000
v -0.46984300 0.01000000 1.97097000
v -0.46984300 0.01000000 1.97097000
v -0.45992000 0.00000000 1.97760000
v -0.45992000 0.01000000 1.97760000
v -0.45992000 0.01000000 1.97760000
v -0.44950700 0.00000000 1.98343000
v -0.44950700 0.01000000 1.98343000
v -0.44950700 0.01000000 1.98343000
v -0.43866800 0.00000000 1.98843000
v -0.43866800 0.01000000 1.98843000
v -0.43866800 0.01000000 1.98843000
v -0.42747100 0.00000000 1.99256000
v -0.42747100 0.01000000 1.99256000
v -0.42747100 0.01000000 1.99256000
v -0.41598400 0.00000000 1.99580000
v -0.41598400 0.01000000 1.99580000
v -0.41598400 0.01000000 1.99580000
v -0.40427800 0.00000000 1.99813000
v -0.40427800 0.01000000 1.99813000
v -0.40427800 0.01000000 1.99813000
v -0.39242600 0.00000000 1.99953000
v -0.39242600 0.01000000 1.99953000
v -0.39242600 0.01000000 1.99953000
v -0.53250000 0.01000000 0.40200000
v -0.53250000 0.01000000 0.40200000
v -0.53250000 0.01000000 0.40200000
v -0.53250000 0.00000000 0.40200000
v -0.53250000 0.00000000 0.40200000
v -0.38050000 0.01000000 0.25000000
v -0.38050000 0.01000000 0.25000000
v -0.38050000 0.01000000 0.25000000
v -0.38050000 0.00000000 0.25000000
v -0.38050000 0.00000000 0.25000000
v -0.39242600 0.00000000 0.25046900
v -0.39242600 0.01000000 0.25046900
v -0.39242600 0.01000000 0.25046900
v -0.40427800 0.00000000 0.25187100
v -0.40427800 0.01000000 0.25187100
v -0.40427800 0.01000000 0.25187100
v -0.41598400 0.00000000 0.25420000
v -0.41598400 0.01000000 0.25420000
v -0.41598400 0.01000000 0.25420000
v -0.42747100 0.00000000 0.25743900
v -0.42747100 0.01000000 0.25743900
v -0.42747100 0.01000000 0.25743900
v -0.43866800 0.00000000 0.26157000
v -0.43866800 0.01000000 0.26157000
v -0.43866800 0.01000000 0.26157000
v -0.44950700 0.00000000 0.26656700
v -0.44950700 0.01000000 0.26656700
v -0.44950700 0.01000000 0.26656700
v -0.45992000 0.00000000 0.27239900
v -0.45992000 0.01000000 0.27239900
v -0.45992000 0.01000000 0.27239900
v -0.46984300 0.00000000 0.27902900
v -0.46984300 0.01000000 0.27902900
v -0.46984300 0.01000000 0.27902900
v -0.47921600 0.00000000 0.28641800
v -0.47921600 0.01000000 0.28641800
v -0.47921600 0.01000000 0.28641800
v -0.48798000 0.00000000 0.29452000
v -0.48798000 0.01000000 0.29452000
v -0.48798000 0.01000000 0.29452000
v -0.49608200 0.00000000 0.30328400
v -0.49608200 0.01000000 0.30328400
v -0.49608200 0.01000000 0.30328400
v -0.50347100 0.00000000 0.31265700
v -0.50347100 0.01000000 0.31265700
v -0.50347100 0.01000000 0.31265700
v -0.51010100 0.00000000 0.32258000
v -0.51010100 0.01000000 0.32258000
v -0.51010100 0.01000000 0.32258000
v -0.51593300 0.00000000 0.33299300
v -0.51593300 0.01000000 0.33299300
v -0.51593300 0.01000000 0.33299300
v -0.52093000 0.00000000 0.34383200
v -0.52093000 0.01000000 0.34383200
v -0.52093000 0.01000000 0.34383200
v -0.52506100 0.00000000 0.35502900
v -0.52506100 0.01000000 0.35502900
v -0.52506100 0.01000000 0.35502900
v -0.52830000 0.00000000 0.36651600
v -0.52830000 0.01000000 0.36651600
v -0.52830000 0.01000000 0.36651600
v -0.53062900 0.00000000 0.37822200
v -0.53062900 0.01000000 0.37822200
v -0.53062900 0.01000000 0.37822200
v -0.53203100 0.00000000 0.39007400
v -0.53203100 0.01000000 0.39007400
v -0.53203100 0.01000000 0.39007400
v 0.38050000 0.01000000 0.25000000
v 0.38050000 0.01000000 0.25000000
v 0.38050000 0.01000000 0.25000000
v 0.38050000 0.00000000 0.25000000
v 0.38050000 0.00000000 0.25000000
v 0.53250000 0.01000000 0.40200000
v 0.53250000 0.01000000 0.40200000
v 0.53250000 0.01000000 0.40200000
v 0.53250000 0.00000000 0.40200000
v 0.53250000 0.00000000 0.40200000
v 0.53203100 0.00000000 0.39007400
v 0.53203100 0.01000000 0.39007400
v 0.53203100 0.01000000 0.39007400
v 0.53062900 0.00000000 0.37822200
v 0.53062900 0.01000000 0.37822200
v 0.53062900 0.01000000 0.37822200
v 0.52830000 0.00000000 0.36651600
v 0.52830000 0.01000000 0.36651600
v 0.52830000 0.01000000 0.36651600
v 0.52506100 0.00000000 0.35502900
v 0.52506100 0.01000000 0.35502900
v 0.52506100 0.01000000 0.35502900
v 0.52093000 0.00000000 0.34383200
v 0.52093000 0.01000000 0.34383200
v 0.52093000 0.01000000 0.34383200
v 0.51593300 0.00000000 0.33299300
v 0.51593300 0.01000000 0.33299300
v 0.51593300 0.01000000 0.33299300
v 0.51010100 0.00000000 0.32258000
v 0.51010100 0.01000000 0.32258000
v 0.51010100 0.01000000 0.32258000
v 0.50347100 0.00000000 0.31265700
v 0.50347100 0.01000000 0.31265700
v 0.50347100 0.01000000 0.31265700
v 0.49608200 0.00000000 0.30328400
v 0.49608200 0.01000000 0.30328400
v 0.49608200 0.01000000 0.30328400
v 0.48798000 0.00000000 0.29452000
v 0.48798000 0.01000000 0.29452000
v 0.48798000 0.01000000 0.29452000
v 0.47921600 0.00000000 0.28641800
v 0.47921600 0.01000000 0.28641800
v 0.47921600 0.01000000 0.28641800
v 0.46984300 0.00000000 0.27902900
v 0.46984300 0.01000000 0.27902900
v 0.46984300 0.01000000 0.27902900
v 0.45992000 0.00000000 0.27239900
v 0.45992000 0.01000000 0.27239900
v 0.45992000 0.01000000 0.27239900
v 0.44950700 0.00000000 0.26656700
v 0.44950700 0.01000000 0.26656700
v 0.44950700 0.01000000 0.26656700
v 0.43866800 0.00000000 0.26157000
v 0.43866800 0.01000000 0.26157000
v 0.43866800 0.01000000 0.26157000
v 0.42747100 0.00000000 0.25743900
v 0.42747100 0.01000000 0.25743900
v 0.42747100 0.01000000 0.25743900
v 0.41598400 0.00000000 0.25420000
v 0.41598400 0.01000000 0.25420000
v 0.41598400 0.01000000 0.25420000
v 0.40427800 0.00000000 0.25187100
v 0.40427800 0.01000000 0.25187100
v 0.40427800 0.01000000 0.25187100
v 0.39242600 0.00000000 0.25046900
v 0.39242600 0.01000000 0.25046900
v 0.39242600 0.01000000 0.25046900
v 0.53250000 0.01000000 1.84800000
v 0.53250000 0.01000000 1.84800000
v 0.53250000 0.01000000 1.84800000
v 0.53250000 0.00000000 1.84800000
v 0.53250000 0.00000000 1.84800000
v 0.39242600 0.00000000 1.99953000
v 0.39242600 0.01000000 1.99953000
v 0.39242600 0.01000000 1.99953000
v 0.40427800 0.00000000 1.99813000
v 0.40427800 0.01000000 1.99813000
v 0.40427800 0.01000000 1.99813000
v 0.41598400 0.00000000 1.99580000
v 0.41598400 0.01000000 1.99580000
v 0.41598400 0.01000000 1.99580000
v 0.42747100 0.00000000 1.99256000
v 0.42747100 0.01000000 1.99256000
v 0.42747100 0.01000000 1.99256000
v 0.43866800 0.00000000 1.98843000
v 0.43866800 0.01000000 1.98843000
v 0.43866800 0.01000000 1.98843000
v 0.44950700 0.00000000 1.98343000
v 0.44950700 0.01000000 1.98343000
v 0.44950700 0.01000000 1.98343000
v 0.45992000 0.00000000 1.97760000
v 0.45992000 0.01000000 1.97760000
v 0.45992000 0.01000000 1.97760000
v 0.46984300 0.00000000 1.97097000
v 0.46984300 0.01000000 1.97097000
v 0.46984300 0.01000000 1.97097000
v 0.47921600 0.00000000 1.96358000
v 0.47921600 0.01000000 1.96358000
v 0.47921600 0.01000000 1.96358000
v 0.48798000 0.00000000 1.95548000
v 0.48798000 0.01000000 1.95548000
v 0.48798000 0.01000000 1.95548000
v 0.49608200 0.00000000 1.94672000
v 0.49608200 0.01000000 1.94672000
v 0.49608200 0.01000000 1.94672000
v 0.50347100 0.00000000 1.93734000
v 0.50347100 0.01000000 1.93734000
v 0.50347100 0.01000000 1.93734000
v 0.51010100 0.00000000 1.92742000
v 0.51010100 0.01000000 1.92742000
v 0.51010100 0.01000000 1.92742000
v 0.51593300 0.00000000 1.91701000
v 0.51593300 0.01000000 1.91701000
v 0.51593300 0.01000000 1.91701000
v 0.52093000 0.00000000 1.90617000
v 0.52093000 0.01000000 1.90617000
v 0.52093000 0.01000000 1.90617000
v 0.52506100 0.00000000 1.89497000
v 0.52506100 0.01000000 1.89497000
v 0.52506100 0.01000000 1.89497000
v 0.52830000 0.00000000 1.88348000
v 0.52830000 0.01000000 1.88348000
v 0.52830000 0.01000000 1.88348000
v 0.53062900 0.00000000 1.87178000
v 0.53062900 0.01000000 1.87178000
v 0.53062900 0.01000000 1.87178000
v 0.53203100 0.00000000 1.85993000
v 0.53203100 0.01000000 1.85993000
v 0.53203100 0.01000000 1.85993000
v 0.37201600 0.01000000 0.45542600
v 0.37201600 0.01000000 0.45542600
v 0.37574700 0.01000000 0.46387600
v 0.37574700 0.01000000 0.46387600
v 0.36752200 0.01000000 0.44735700
v 0.36752200 0.01000000 0.44735700
v 0.36230200 0.01000000 0.43973700
v 0.36230200 0.01000000 0.43973700
v 0.35640100 0.01000000 0.43263000
v 0.35640100 0.01000000 0.43263000
v 0.34276300 0.01000000 0.42019800
v 0.34276300 0.01000000 0.42019800
v 0.35640100 0.01000000 1.81737000
v 0.35640100 0.01000000 1.81737000
v 0.36230200 0.01000000 1.81026000
v 0.36230200 0.01000000 1.81026000
v 0.36752200 0.01000000 1.80264000
v 0.36752200 0.01000000 1.80264000
v 0.37201600 0.01000000 1.79457000
v 0.37201600 0.01000000 1.79457000
v 0.38250000 0.01000000 0.50000000
v 0.38250000 0.01000000 0.50000000
v 0.38250000 0.01000000 0.50000000
v 0.38250000 0.01000000 1.75000000
v 0.38250000 0.01000000 1.75000000
v 0.38250000 0.01000000 1.75000000
v 0.34987000 0.01000000 0.42609900
v 0.34987000 0.01000000 0.42609900
v 0.32707400 0.01000000 0.41048400
v 0.32707400 0.01000000 0.41048400
v -0.28250000 0.01000000 0.40000000
v -0.28250000 0.01000000 0.40000000
v -0.28250000 0.01000000 0.40000000
v 0.34276300 0.01000000 1.82980000
v 0.34276300 0.01000000 1.82980000
v 0.33514300 0.01000000 1.83502000
v 0.33514300 0.01000000 1.83502000
v 0.34987000 0.01000000 1.82390000
v 0.34987000 0.01000000 1.82390000
v 0.37574700 0.01000000 1.78612000
v 0.37574700 0.01000000 1.78612000
v 0.38207300 0.01000000 0.49077300
v 0.38207300 0.01000000 0.49077300
v 0.33514300 0.01000000 0.41497800
v 0.33514300 0.01000000 0.41497800
v 0.28250000 0.01000000 0.40000000
v 0.28250000 0.01000000 0.40000000
v 0.28250000 0.01000000 0.40000000
v -0.34987000 0.01000000 0.42609900
v -0.34987000 0.01000000 0.42609900
v -0.34276300 0.01000000 0.42019800
v -0.34276300 0.01000000 0.42019800
v -0.35640100 0.01000000 0.43263000
v -0.35640100 0.01000000 0.43263000
v -0.36230200 0.01000000 0.43973700
v -0.36230200 0.01000000 0.43973700
v -0.38250000 0.01000000 1.75000000
v -0.38250000 0.01000000 1.75000000
v -0.38250000 0.01000000 1.75000000
v -0.37201600 0.01000000 1.79457000
v -0.37201600 0.01000000 1.79457000
v -0.37574700 0.01000000 1.78612000
v -0.37574700 0.01000000 1.78612000
v -0.36752200 0.01000000 1.80264000
v -0.36752200 0.01000000 1.80264000
v -0.36230200 0.01000000 1.81026000
v -0.36230200 0.01000000 1.81026000
v 0.38079700 0.01000000 1.76837000
v 0.38079700 0.01000000 1.76837000
v 0.37868300 0.01000000 1.77737000
v 0.37868300 0.01000000 1.77737000
v 0.38079700 0.01000000 0.48162500
v 0.38079700 0.01000000 0.48162500
v 0.37868300 0.01000000 0.47263400
v 0.37868300 0.01000000 0.47263400
v 0.30986600 0.01000000 0.40381700
v 0.30986600 0.01000000 0.40381700
v 0.31862400 0.01000000 0.40675300
v 0.31862400 0.01000000 0.40675300
v 0.29172700 0.01000000 0.40042700
v 0.29172700 0.01000000 0.40042700
v 0.30087500 0.01000000 0.40170300
v 0.30087500 0.01000000 0.40170300
v -0.29172700 0.01000000 0.40042700
v -0.29172700 0.01000000 0.40042700
v -0.31862400 0.01000000 0.40675300
v -0.31862400 0.01000000 0.40675300
v -0.30986600 0.01000000 0.40381700
v -0.30986600 0.01000000 0.40381700
v -0.33514300 0.01000000 0.41497800
v -0.33514300 0.01000000 0.41497800
v -0.32707400 0.01000000 0.41048400
v -0.32707400 0.01000000 0.41048400
v -0.36752200 0.01000000 0.44735700
v -0.36752200 0.01000000 0.44735700
v -0.37201600 0.01000000 0.45542600
v -0.37201600 0.01000000 0.45542600
v -0.38250000 0.01000000 0.50000000
v -0.38250000 0.01000000 0.50000000
v -0.38250000 0.01000000 0.50000000
v -0.35640100 0.01000000 1.81737000
v -0.35640100 0.01000000 1.81737000
v -0.34276300 0.01000000 1.82980000
v -0.34276300 0.01000000 1.82980000
v 0.38207300 0.01000000 1.75923000
v 0.38207300 0.01000000 1.75923000
v -0.30087500 0.01000000 0.40170300
v -0.30087500 0.01000000 0.40170300
v -0.38207300 0.01000000 1.75923000
v -0.38207300 0.01000000 1.75923000
v -0.34987000 0.01000000 1.82390000
v -0.34987000 0.01000000 1.82390000
v 0.32707400 0.01000000 1.83952000
v 0.32707400 0.01000000 1.83952000
v 0.31862400 0.01000000 1.84325000
v 0.31862400 0.01000000 1.84325000
v -0.37868300 0.01000000 0.47263400
v -0.37868300 0.01000000 0.47263400
v -0.37574700 0.01000000 0.46387600
v -0.37574700 0.01000000 0.46387600
v -0.38207300 0.01000000 0.49077300
v -0.38207300 0.01000000 0.49077300
v -0.38079700 0.01000000 0.48162500
v -0.38079700 0.01000000 0.48162500
v -0.38079700 0.01000000 1.76837000
v -0.38079700 0.01000000 1.76837000
v -0.37868300 0.01000000 1.77737000
v -0.37868300 0.01000000 1.77737000
v -0.33514300 0.01000000 1.83502000
v -0.33514300 0.01000000 1.83502000
v -0.32707400 0.01000000 1.83952000
v -0.32707400 0.01000000 1.83952000
v -0.31862400 0.01000000 1.84325000
v -0.31862400 0.01000000 1.84325000
v 0.28250000 0.01000000 1.85000000
v 0.28250000 0.01000000 1.85000000
v 0.28250000 0.01000000 1.85000000
v -0.28250000 0.01000000 1.85000000
v -0.28250000 0.01000000 1.85000000
v -0.28250000 0.01000000 1.85000000
v -0.30986600 0.01000000 1.84618000
v -0.30986600 0.01000000 1.84618000
v -0.29172700 0.01000000 1.84957000
v -0.29172700 0.01000000 1.84957000
v 0.30087500 0.01000000 1.84830000
v 0.30087500 0.01000000 1.84830000
v 0.29172700 0.01000000 1.84957000
v 0.29172700 0.01000000 1.84957000
v -0.30087500 0.01000000 1.84830000
v -0.30087500 0.01000000 1.84830000
v 0.30986600 0.01000000 1.84618000
v 0.30986600 0.01000000 1.84618000
v 0.28250000 -0.06000000 0.40000000
v 0.28250000 -0.06000000 0.40000000
v 0.28250000 -0.06000000 0.40000000
v 0.29172700 -0.06000000 0.40042700
v 0.29172700 -0.06000000 0.40042700
v 0.30087500 -0.06000000 0.40170300
v 0.30087500 -0.06000000 0.40170300
v 0.30986600 -0.06000000 0.40381700
v 0.30986600 -0.06000000 0.40381700
v 0.31862400 -0.06000000 0.40675300
v 0.31862400 -0.06000000 0.40675300
v 0.32707400 -0.06000000 0.41048400
v 0.32707400 -0.06000000 0.41048400
v 0.33514300 -0.06000000 0.41497800
v 0.33514300 -0.06000000 0.41497800
v 0.34276300 -0.06000000 0.42019800
v 0.34276300 -0.06000000 0.42019800
v 0.34987000 -0.06000000 0.42609900
v 0.34987000 -0.06000000 0.42609900
v 0.35640100 -0.06000000 0.43263000
v 0.35640100 -0.06000000 0.43263000
v 0.36230200 -0.06000000 0.43973700
v 0.36230200 -0.06000000 0.43973700
v 0.36752200 -0.06000000 0.44735700
v 0.36752200 -0.06000000 0.44735700
v 0.37201600 -0.06000000 0.45542600
v 0.37201600 -0.06000000 0.45542600
v 0.37574700 -0.06000000 0.46387600
v 0.37574700 -0.06000000 0.46387600
v 0.37868300 -0.06000000 0.47263400
v 0.37868300 -0.06000000 0.47263400
v 0.38079700 -0.06000000 0.48162500
v 0.38079700 -0.06000000 0.48162500
v 0.38207300 -0.06000000 0.49077300
v 0.38207300 -0.06000000 0.49077300
v 0.38250000 -0.06000000 0.50000000
v 0.38250000 -0.06000000 0.50000000
v 0.38250000 -0.06000000 0.50000000
v -0.28250000 -0.06000000 0.40000000
v -0.28250000 -0.06000000 0.40000000
v -0.28250000 -0.06000000 0.40000000
v -0.38250000 -0.06000000 0.50000000
v -0.38250000 -0.06000000 0.50000000
v -0.38250000 -0.06000000 0.50000000
v -0.38207300 -0.06000000 0.49077300
v -0.38207300 -0.06000000 0.49077300
v -0.38079700 -0.06000000 0.48162500
v -0.38079700 -0.06000000 0.48162500
v -0.37868300 -0.06000000 0.47263400
v -0.37868300 -0.06000000 0.47263400
v -0.37574700 -0.06000000 0.46387600
v -0.37574700 -0.06000000 0.46387600
v -0.37201600 -0.06000000 0.45542600
v -0.37201600 -0.06000000 0.45542600
v -0.36752200 -0.06000000 0.44735700
v -0.36752200 -0.06000000 0.44735700
v -0.36230200 -0.06000000 0.43973700
v -0.36230200 -0.06000000 0.43973700
v -0.35640100 -0.06000000 0.43263000
v -0.35640100 -0.06000000 0.43263000
v -0.34987000 -0.06000000 0.42609900
v -0.34987000 -0.06000000 0.42609900
v -0.34276300 -0.06000000 0.42019800
v -0.34276300 -0.06000000 0.42019800
v -0.33514300 -0.06000000 0.41497800
v -0.33514300 -0.06000000 0.41497800
v -0.32707400 -0.06000000 0.41048400
v -0.32707400 -0.06000000 0.41048400
v -0.31862400 -0.06000000 0.40675300
v -0.31862400 -0.06000000 0.40675300
v -0.30986600 -0.06000000 0.40381700
v -0.30986600 -0.06000000 0.40381700
v -0.30087500 -0.06000000 0.40170300
v -0.30087500 -0.06000000 0.40170300
v -0.29172700 -0.06000000 0.40042700
v -0.29172700 -0.06000000 0.40042700
v -0.38250000 -0.06000000 1.75000000
v -0.38250000 -0.06000000 1.75000000
v -0.38250000 -0.06000000 1.75000000
v -0.28250000 -0.06000000 1.85000000
v -0.28250000 -0.06000000 1.85000000
v -0.28250000 -0.06000000 1.85000000
v -0.29172700 -0.06000000 1.84957000
v -0.29172700 -0.06000000 1.84957000
v -0.30087500 -0.06000000 1.84830000
v -0.30087500 -0.06000000 1.84830000
v -0.30986600 -0.06000000 1.84618000
v -0.30986600 -0.06000000 1.84618000
v -0.31862400 -0.06000000 1.84325000
v -0.31862400 -0.06000000 1.84325000
v -0.32707400 -0.06000000 1.83952000
v -0.32707400 -0.06000000 1.83952000
v -0.33514300 -0.06000000 1.83502000
v -0.33514300 -0.06000000 1.83502000
v -0.34276300 -0.06000000 1.82980000
v -0.34276300 -0.06000000 1.82980000
v -0.34987000 -0.06000000 1.82390000
v -0.34987000 -0.06000000 1.82390000
v -0.35640100 -0.06000000 1.81737000
v -0.35640100 -0.06000000 1.81737000
v -0.36230200 -0.06000000 1.81026000
v -0.36230200 -0.06000000 1.81026000
v -0.36752200 -0.06000000 1.80264000
v -0.36752200 -0.06000000 1.80264000
v -0.37201600 -0.06000000 1.79457000
v -0.37201600 -0.06000000 1.79457000
v -0.37574700 -0.06000000 1.78612000
v -0.37574700 -0.06000000 1.78612000
v -0.37868300 -0.06000000 1.77737000
v -0.37868300 -0.06000000 1.77737000
v -0.38079700 -0.06000000 1.76837000
v -0.38079700 -0.06000000 1.76837000
v -0.38207300 -0.06000000 1.75923000
v -0.38207300 -0.06000000 1.75923000
v 0.28250000 -0.06000000 1.85000000
v 0.28250000 -0.06000000 1.85000000
v 0.28250000 -0.06000000 1.85000000
v 0.38250000 -0.06000000 1.75000000
v 0.38250000 -0.06000000 1.75000000
v 0.38250000 -0.06000000 1.75000000
v 0.38207300 -0.06000000 1.75923000
v 0.38207300 -0.06000000 1.75923000
v 0.38079700 -0.06000000 1.76837000
v 0.38079700 -0.06000000 1.76837000
v 0.37868300 -0.06000000 1.77737000
v 0.37868300 -0.06000000 1.77737000
v 0.37574700 -0.06000000 1.78612000
v 0.37574700 -0.06000000 1.78612000
v 0.37201600 -0.06000000 1.79457000
v 0.37201600 -0.06000000 1.79457000
v 0.36752200 -0.06000000 1.80264000
v 0.36752200 -0.06000000 1.80264000
v 0.36230200 -0.06000000 1.81026000
v 0.36230200 -0.06000000 1.81026000
v 0.35640100 -0.06000000 1.81737000
v 0.35640100 -0.06000000 1.81737000
v 0.34987000 -0.06000000 1.82390000
v 0.34987000 -0.06000000 1.82390000
v 0.34276300 -0.06000000 1.82980000
v 0.34276300 -0.06000000 1.82980000
v 0.33514300 -0.06000000 1.83502000
v 0.33514300 -0.06000000 1.83502000
v 0.32707400 -0.06000000 1.83952000
v 0.32707400 -0.06000000 1.83952000
v 0.31862400 -0.06000000 1.84325000
v 0.31862400 -0.06000000 1.84325000
v 0.30986600 -0.06000000 1.84618000
v 0.30986600 -0.06000000 1.84618000
v 0.30087500 -0.06000000 1.84830000
v 0.30087500 -0.06000000 1.84830000
v 0.29172700 -0.06000000 1.84957000
v 0.29172700 -0.06000000 1.84957000
v 0.52093000 -0.06000000 0.34383200
v 0.52093000 -0.06000000 0.34383200
v 0.52506100 -0.06000000 0.35502900
v 0.52506100 -0.06000000 0.35502900
v 0.52830000 -0.06000000 0.36651600
v 0.52830000 -0.06000000 0.36651600
v 0.53062900 -0.06000000 0.37822200
v 0.53062900 -0.06000000 0.37822200
v 0.53203100 -0.06000000 0.39007400
v 0.53203100 -0.06000000 0.39007400
v 0.53250000 -0.06000000 0.40200000
v 0.53250000 -0.06000000 0.40200000
v 0.53250000 -0.06000000 0.40200000
v 0.51593300 -0.06000000 0.33299300
v 0.51593300 -0.06000000 0.33299300
v -0.53250000 -0.06000000 1.84800000
v -0.53250000 -0.06000000 1.84800000
v -0.53250000 -0.06000000 1.84800000
v -0.53250000 -0.06000000 0.40200000
v -0.53250000 -0.06000000 0.40200000
v -0.53250000 -0.06000000 0.40200000
v 0.42747100 -0.06000000 0.25743900
v 0.42747100 -0.06000000 0.25743900
v 0.50347100 -0.06000000 0.31265700
v 0.50347100 -0.06000000 0.31265700
v 0.51010100 -0.06000000 0.32258000
v 0.51010100 -0.06000000 0.32258000
v -0.42747100 -0.06000000 1.99256000
v -0.42747100 -0.06000000 1.99256000
v -0.53203100 -0.06000000 1.85993000
v -0.53203100 -0.06000000 1.85993000
v 0.43866800 -0.06000000 0.26157000
v 0.43866800 -0.06000000 0.26157000
v 0.45992000 -0.06000000 0.27239900
v 0.45992000 -0.06000000 0.27239900
v 0.48798000 -0.06000000 0.29452000
v 0.48798000 -0.06000000 0.29452000
v 0.49608200 -0.06000000 0.30328400
v 0.49608200 -0.06000000 0.30328400
v 0.53250000 -0.06000000 1.84800000
v 0.53250000 -0.06000000 1.84800000
v 0.53250000 -0.06000000 1.84800000
v 0.53062900 -0.06000000 1.87178000
v 0.53062900 -0.06000000 1.87178000
v 0.52093000 -0.06000000 1.90617000
v 0.52093000 -0.06000000 1.90617000
v 0.51593300 -0.06000000 1.91701000
v 0.51593300 -0.06000000 1.91701000
v 0.52506100 -0.06000000 1.89497000
v 0.52506100 -0.06000000 1.89497000
v 0.51010100 -0.06000000 1.92742000
v 0.51010100 -0.06000000 1.92742000
v -0.43866800 -0.06000000 1.98843000
v -0.43866800 -0.06000000 1.98843000
v -0.45992000 -0.06000000 1.97760000
v -0.45992000 -0.06000000 1.97760000
v -0.52093000 -0.06000000 1.90617000
v -0.52093000 -0.06000000 1.90617000
v -0.52506100 -0.06000000 1.89497000
v -0.52506100 -0.06000000 1.89497000
v -0.51010100 -0.06000000 1.92742000
v -0.51010100 -0.06000000 1.92742000
v -0.51593300 -0.06000000 1.91701000
v -0.51593300 -0.06000000 1.91701000
v -0.52830000 -0.06000000 1.88348000
v -0.52830000 -0.06000000 1.88348000
v -0.53062900 -0.06000000 1.87178000
v -0.53062900 -0.06000000 1.87178000
v -0.52506100 -0.06000000 0.35502900
v -0.52506100 -0.06000000 0.35502900
v -0.48798000 -0.06000000 0.29452000
v -0.48798000 -0.06000000 0.29452000
v -0.47921600 -0.06000000 0.28641800
v -0.47921600 -0.06000000 0.28641800
v -0.46984300 -0.06000000 0.27902900
v -0.46984300 -0.06000000 0.27902900
v -0.45992000 -0.06000000 0.27239900
v -0.45992000 -0.06000000 0.27239900
v 0.38050000 -0.06000000 0.25000000
v 0.38050000 -0.06000000 0.25000000
v 0.38050000 -0.06000000 0.25000000
v 0.44950700 -0.06000000 0.26656700
v 0.44950700 -0.06000000 0.26656700
v 0.46984300 -0.06000000 0.27902900
v 0.46984300 -0.06000000 0.27902900
v 0.47921600 -0.06000000 0.28641800
v 0.47921600 -0.06000000 0.28641800
v 0.53203100 -0.06000000 1.85993000
v 0.53203100 -0.06000000 1.85993000
v 0.52830000 -0.06000000 1.88348000
v 0.52830000 -0.06000000 1.88348000
v 0.50347100 -0.06000000 1.93734000
v 0.50347100 -0.06000000 1.93734000
v 0.38050000 -0.06000000 2.00000000
v 0.38050000 -0.06000000 2.00000000
v 0.38050000 -0.06000000 2.00000000
v -0.38050000 -0.06000000 2.00000000
v -0.38050000 -0.06000000 2.00000000
v -0.38050000 -0.06000000 2.00000000
v -0.44950700 -0.06000000 1.98343000
v -0.44950700 -0.06000000 1.98343000
v -0.46984300 -0.06000000 1.97097000
v -0.46984300 -0.06000000 1.97097000
v -0.48798000 -0.06000000 1.95548000
v -0.48798000 -0.06000000 1.95548000
v -0.49608200 -0.06000000 1.94672000
v -0.49608200 -0.06000000 1.94672000
v -0.50347100 -0.06000000 1.93734000
v -0.50347100 -0.06000000 1.93734000
v -0.53062900 -0.06000000 0.37822200
v -0.53062900 -0.06000000 0.37822200
v -0.52093000 -0.06000000 0.34383200
v -0.52093000 -0.06000000 0.34383200
v -0.51010100 -0.06000000 0.32258000
v -0.51010100 -0.06000000 0.32258000
v -0.49608200 -0.06000000 0.30328400
v -0.49608200 -0.06000000 0.30328400
v -0.43866800 -0.06000000 0.26157000
v -0.43866800 -0.06000000 0.26157000
v -0.42747100 -0.06000000 0.25743900
v -0.42747100 -0.06000000 0.25743900
v -0.44950700 -0.06000000 0.26656700
v -0.44950700 -0.06000000 0.26656700
v -0.41598400 -0.06000000 0.25420000
v -0.41598400 -0.06000000 0.25420000
v -0.40427800 -0.06000000 0.25187100
v -0.40427800 -0.06000000 0.25187100
v 0.39242600 -0.06000000 0.25046900
v 0.39242600 -0.06000000 0.25046900
v 0.40427800 -0.06000000 0.25187100
v 0.40427800 -0.06000000 0.25187100
v 0.49608200 -0.06000000 1.94672000
v 0.49608200 -0.06000000 1.94672000
v 0.48798000 -0.06000000 1.95548000
v 0.48798000 -0.06000000 1.95548000
v 0.46984300 -0.06000000 1.97097000
v 0.46984300 -0.06000000 1.97097000
v 0.45992000 -0.06000000 1.97760000
v 0.45992000 -0.06000000 1.97760000
v 0.43866800 -0.06000000 1.98843000
v 0.43866800 -0.06000000 1.98843000
v 0.42747100 -0.06000000 1.99256000
v 0.42747100 -0.06000000 1.99256000
v -0.40427800 -0.06000000 1.99813000
v -0.40427800 -0.06000000 1.99813000
v -0.47921600 -0.06000000 1.96358000
v -0.47921600 -0.06000000 1.96358000
v -0.53203100 -0.06000000 0.39007400
v -0.53203100 -0.06000000 0.39007400
v -0.52830000 -0.06000000 0.36651600
v -0.52830000 -0.06000000 0.36651600
v -0.51593300 -0.06000000 0.33299300
v -0.51593300 -0.06000000 0.33299300
v -0.50347100 -0.06000000 0.31265700
v -0.50347100 -0.06000000 0.31265700
v -0.39242600 -0.06000000 0.25046900
v -0.39242600 -0.06000000 0.25046900
v -0.38050000 -0.06000000 0.25000000
v -0.38050000 -0.06000000 0.25000000
v -0.38050000 -0.06000000 0.25000000
v 0.41598400 -0.06000000 0.25420000
v 0.41598400 -0.06000000 0.25420000
v 0.47921600 -0.06000000 1.96358000
v 0.47921600 -0.06000000 1.96358000
v 0.44950700 -0.06000000 1.98343000
v 0.44950700 -0.06000000 1.98343000
v -0.39242600 -0.06000000 1.99953000
v -0.39242600 -0.06000000 1.99953000
v -0.41598400 -0.06000000 1.99580000
v -0.41598400 -0.06000000 1.99580000
v 0.41598400 -0.06000000 1.99580000
v 0.41598400 -0.06000000 1.99580000
v 0.40427800 -0.06000000 1.99813000
v 0.40427800 -0.06000000 1.99813000
v 0.39242600 -0.06000000 1.99953000
v 0.39242600 -0.06000000 1.99953000
v -0.38050000 -0.05000000 2.00000000
v -0.38050000 -0.05000000 2.00000000
v -0.53250000 -0.05000000 0.40200000
v -0.53250000 -0.05000000 0.40200000
v 0.53250000 -0.05000000 1.84800000
v 0.53250000 -0.05000000 1.84800000
v 0.53250000 -0.05000000 0.40200000
v 0.53250000 -0.05000000 0.40200000
v 0.40427800 -0.05000000 1.99813000
v 0.41598400 -0.05000000 1.99580000
v 0.38050000 -0.05000000 2.00000000
v 0.38050000 -0.05000000 2.00000000
v -0.53203100 -0.05000000 0.39007400
v 0.53203100 -0.05000000 1.85993000
v 0.39242600 -0.05000000 1.99953000
v -0.39242600 -0.05000000 1.99953000
v -0.53250000 -0.05000000 1.84800000
v -0.53250000 -0.05000000 1.84800000
v -0.53203100 -0.05000000 1.85993000
v 0.47921600 -0.05000000 0.28641800
v 0.46984300 -0.05000000 0.27902900
v 0.52830000 -0.05000000 0.36651600
v 0.52506100 -0.05000000 0.35502900
v 0.53203100 -0.05000000 0.39007400
v 0.46984300 -0.05000000 1.97097000
v 0.47921600 -0.05000000 1.96358000
v 0.43866800 -0.05000000 1.98843000
v 0.44950700 -0.05000000 1.98343000
v -0.40427800 -0.05000000 1.99813000
v -0.42747100 -0.05000000 1.99256000
v -0.41598400 -0.05000000 1.99580000
v -0.53062900 -0.05000000 0.37822200
v -0.52506100 -0.05000000 0.35502900
v -0.52830000 -0.05000000 0.36651600
v -0.49608200 -0.05000000 0.30328400
v -0.50347100 -0.05000000 0.31265700
v 0.41598400 -0.05000000 0.25420000
v 0.40427800 -0.05000000 0.25187100
v 0.43866800 -0.05000000 0.26157000
v 0.42747100 -0.05000000 0.25743900
v 0.45992000 -0.05000000 0.27239900
v 0.51010100 -0.05000000 0.32258000
v 0.50347100 -0.05000000 0.31265700
v 0.53062900 -0.05000000 0.37822200
v 0.53062900 -0.05000000 1.87178000
v 0.48798000 -0.05000000 1.95548000
v 0.49608200 -0.05000000 1.94672000
v 0.45992000 -0.05000000 1.97760000
v 0.42747100 -0.05000000 1.99256000
v -0.45992000 -0.05000000 1.97760000
v -0.44950700 -0.05000000 1.98343000
v -0.53062900 -0.05000000 1.87178000
v -0.52830000 -0.05000000 1.88348000
v -0.51010100 -0.05000000 0.32258000
v -0.51593300 -0.05000000 0.33299300
v -0.48798000 -0.05000000 0.29452000
v -0.45992000 -0.05000000 0.27239900
v -0.46984300 -0.05000000 0.27902900
v 0.44950700 -0.05000000 0.26656700
v 0.51593300 -0.05000000 0.33299300
v 0.52506100 -0.05000000 1.89497000
v 0.52830000 -0.05000000 1.88348000
v -0.43866800 -0.05000000 1.98843000
v -0.52093000 -0.05000000 0.34383200
v -0.47921600 -0.05000000 0.28641800
v -0.44950700 -0.05000000 0.26656700
v 0.52093000 -0.05000000 0.34383200
v 0.51593300 -0.05000000 1.91701000
v 0.52093000 -0.05000000 1.90617000
v 0.50347100 -0.05000000 1.93734000
v 0.51010100 -0.05000000 1.92742000
v -0.46984300 -0.05000000 1.97097000
v -0.48798000 -0.05000000 1.95548000
v -0.47921600 -0.05000000 1.96358000
v -0.50347100 -0.05000000 1.93734000
v -0.49608200 -0.05000000 1.94672000
v -0.41598400 -0.05000000 0.25420000
v -0.42747100 -0.05000000 0.25743900
v 0.39242600 -0.05000000 0.25046900
v 0.49608200 -0.05000000 0.30328400
v 0.48798000 -0.05000000 0.29452000
v -0.43866800 -0.05000000 0.26157000
v 0.38050000 -0.05000000 0.25000000
v 0.38050000 -0.05000000 0.25000000
v -0.51593300 -0.05000000 1.91701000
v -0.51010100 -0.05000000 1.92742000
v -0.52506100 -0.05000000 1.89497000
v -0.52093000 -0.05000000 1.90617000
v -0.39242600 -0.05000000 0.25046900
v -0.40427800 -0.05000000 0.25187100
v -0.38050000 -0.05000000 0.25000000
v -0.38050000 -0.05000000 0.25000000
vn 0.00000000 0.00000000 1.00000000
vn -0.00000000 0.00000000 1.00000000
vn 0.00000000 1.00000000 0.00000000
vn 0.00000000 0.00000000 1.00000000
vn -0.00000000 0.00000000 1.00000000
vn 0.00000000 0.00000000 1.00000000
vn 0.00000000 0.00000000 1.00000000
vn 0.00000000 0.00000000 1.00000000
vn 0.00000000 1.00000000 0.00000000
vn 0.00000000 0.00000000 1.00000000
vn -1.00000000 0.00000000 -0.00000000
vn 0.00000000 1.00000000 0.00000000
vn -1.00000000 0.00000000 -0.00000000
vn -1.00000000 0.00000000 -0.00000000
vn -1.00000000 0.00000000 -0.00000000
vn -0.99691700 0.00000000 0.07845910
vn -0.99691700 0.00000000 0.07845910
vn 0.00000000 1.00000000 0.00000000
vn -0.98768800 0.00000000 0.15643400
vn 0.00000000 1.00000000 0.00000000
vn -0.98768800 0.00000000 0.15643400
vn -0.97237000 0.00000000 0.23344500
vn 0.00000000 1.00000000 0.00000000
vn -0.97237000 0.00000000 0.23344500
vn -0.95105700 0.00000000 0.30901700
vn -0.95105700 0.00000000 0.30901700
vn 0.00000000 1.00000000 0.00000000
vn -0.92388000 0.00000000 0.38268300
vn -0.92388000 0.00000000 0.38268300
vn 0.00000000 1.00000000 0.00000000
vn -0.89100700 0.00000000 0.45399000
vn 0.00000000 1.00000000 0.00000000
vn -0.89100700 0.00000000 0.45399000
vn -0.85264000 0.00000000 0.52249900
vn 0.00000000 1.00000000 0.00000000
vn -0.85264000 0.00000000 0.52249900
vn -0.80901700 0.00000000 0.58778500
vn 0.00000000 1.00000000 0.00000000
vn -0.80901700 0.00000000 0.58778500
vn -0.76040600 0.00000000 0.64944800
vn -0.76040600 0.00000000 0.64944800
vn 0.00000000 1.00000000 0.00000000
vn -0.70710700 0.00000000 0.70710700
vn 0.00000000 1.00000000 0.00000000
vn -0.70710700 0.00000000 0.70710700
vn -0.64944800 0.00000000 0.76040600
vn 0.00000000 1.00000000 0.00000000
vn -0.64944800 0.00000000 0.76040600
vn -0.58778500 0.00000000 0.80901700
vn -0.58778500 0.00000000 0.80901700
vn 0.00000000 1.00000000 0.00000000
vn -0.52249900 0.00000000 0.85264000
vn 0.00000000 1.00000000 0.00000000
vn -0.52249900 0.00000000 0.85264000
vn -0.45399000 0.00000000 0.89100700
vn 0.00000000 1.00000000 0.00000000
vn -0.45399000 0.00000000 0.89100700
vn -0.38268300 0.00000000 0.92388000
vn -0.38268300 0.00000000 0.92388000
vn 0.00000000 1.00000000 0.00000000
vn -0.30901700 0.00000000 0.95105700
vn 0.00000000 1.00000000 0.00000000
vn -0.30901700 0.00000000 0.95105700
vn -0.23344500 0.00000000 0.97237000
vn 0.00000000 1.00000000 0.00000000
vn -0.23344500 0.00000000 0.97237000
vn -0.15643400 0.00000000 0.98768800
vn -0.15643400 0.00000000 0.98768800
vn 0.00000000 1.00000000 0.00000000
vn -0.07845910 0.00000000 0.99691700
vn 0.00000000 1.00000000 0.00000000
vn -0.07845910 0.00000000 0.99691700
vn -1.00000000 0.00000000 -0.00000000
vn 0.00000000 1.00000000 0.00000000
vn -1.00000000 0.00000000 -0.00000000
vn -1.00000000 0.00000000 -0.00000000
vn -1.00000000 0.00000000 -0.00000000
vn 0.00000000 0.00000000 -1.00000000
vn 0.00000000 0.00000000 -1.00000000
vn 0.00000000 1.00000000 0.00000000
vn 0.00000000 0.00000000 -1.00000000
vn 0.00000000 0.00000000 -1.00000000
vn -0.07845910 0.00000000 -0.99691700
vn 0.00000000 1.00000000 0.00000000
vn -0.07845910 0.00000000 -0.99691700
vn -0.15643400 0.00000000 -0.98768800
vn -0.15643400 0.00000000 -0.98768800
vn 0.00000000 1.00000000 0.00000000
vn -0.23344500 0.00000000 -0.97237000
vn -0.23344500 0.00000000 -0.97237000
vn 0.00000000 1.00000000 0.00000000
vn -0.30901700 0.00000000 -0.95105700
vn -0.30901700 0.00000000 -0.95105700
vn 0.00000000 1.00000000 0.00000000
vn -0.38268300 0.00000000 -0.92388000
vn -0.38268300 0.00000000 -0.92388000
vn 0.00000000 1.00000000 0.00000000
vn -0.45399000 0.00000000 -0.89100700
vn 0.00000000 1.00000000 0.00000000
vn -0.45399000 0.00000000 -0.89100700
vn -0.52249900 0.00000000 -0.85264000
vn -0.52249900 0.00000000 -0.85264000
vn 0.00000000 1.00000000 0.00000000
vn -0.58778500 0.00000000 -0.80901700
vn 0.00000000 1.00000000 0.00000000
vn -0.58778500 0.00000000 -0.80901700
vn -0.64944800 0.00000000 -0.76040600
vn -0.64944800 0.00000000 -0.76040600
vn 0.00000000 1.00000000 0.00000000
vn -0.70710700 0.00000000 -0.70710700
vn 0.00000000 1.00000000 0.00000000
vn -0.70710700 0.00000000 -0.70710700
vn -0.76040600 0.00000000 -0.64944800
vn 0.00000000 1.00000000 0.00000000
vn -0.76040600 0.00000000 -0.64944800
vn -0.80901700 0.00000000 -0.58778500
vn 0.00000000 1.00000000 0.00000000
vn -0.80901700 0.00000000 -0.58778500
vn -0.85264000 0.00000000 -0.52249900
vn 0.00000000 1.00000000 0.00000000
vn -0.85264000 0.00000000 -0.52249900
vn -0.89100700 0.00000000 -0.45399000
vn -0.89100700 0.00000000 -0.45399000
vn 0.00000000 1.00000000 0.00000000
vn -0.92388000 0.00000000 -0.38268300
vn -0.92388000 0.00000000 -0.38268300
vn 0.00000000 1.00000000 0.00000000
vn -0.95105700 0.00000000 -0.30901700
vn -0.95105700 0.00000000 -0.30901700
vn 0.00000000 1.00000000 0.00000000
vn -0.97237000 0.00000000 -0.23344500
vn -0.97237000 0.00000000 -0.23344500
vn 0.00000000 1.00000000 0.00000000
vn -0.98768800 0.00000000 -0.15643400
vn 0.00000000 1.00000000 0.00000000
vn -0.98768800 0.00000000 -0.15643400
vn -0.99691700 0.00000000 -0.07845910
vn 0.00000000 1.00000000 0.00000000
vn -0.99691700 0.00000000 -0.07845910
vn 0.00000000 1.00000000 0.00000000
vn 0.00000000 0.00000000 -1.00000000
vn 0.00000000 0.00000000 -1.00000000
vn 0.00000000 0.00000000 -1.00000000
vn 0.00000000 0.00000000 -1.00000000
vn 0.00000000 1.00000000 0.00000000
vn 1.00000000 0.00000000 0.00000000
vn 1.00000000 0.00000000 0.00000000
vn 1.00000000 0.00000000 0.00000000
vn 1.00000000 0.00000000 0.00000000
vn 0.99691700 0.00000000 -0.07845910
vn 0.99691700 0.00000000 -0.07845910
vn 0.00000000 1.00000000 0.00000000
vn 0.98768800 0.00000000 -0.15643400
vn 0.98768800 0.00000000 -0.15643400
vn 0.00000000 1.00000000 0.00000000
vn 0.97237000 0.00000000 -0.23344500
vn 0.00000000 1.00000000 0.00000000
vn 0.97237000 0.00000000 -0.23344500
vn 0.95105700 0.00000000 -0.30901700
vn 0.00000000 1.00000000 0.00000000
vn 0.95105700 0.00000000 -0.30901700
vn 0.92388000 0.00000000 -0.38268300
vn 0.00000000 1.00000000 0.00000000
vn 0.92388000 0.00000000 -0.38268300
vn 0.89100700 0.00000000 -0.45399000
vn 0.89100700 0.00000000 -0.45399000
vn 0.00000000 1.00000000 0.00000000
vn 0.85264000 0.00000000 -0.52249900
vn 0.85264000 0.00000000 -0.52249900
vn 0.00000000 1.00000000 0.00000000
vn 0.80901700 0.00000000 -0.58778500
vn 0.00000000 1.00000000 0.00000000
vn 0.80901700 0.00000000 -0.58778500
vn 0.76040600 0.00000000 -0.64944800
vn 0.00000000 1.00000000 0.00000000
vn 0.76040600 0.00000000 -0.64944800
vn 0.70710700 0.00000000 -0.70710700
vn 0.00000000 1.00000000 0.00000000
vn 0.70710700 0.00000000 -0.70710700
vn 0.64944800 0.00000000 -0.76040600
vn 0.00000000 1.00000000 0.00000000
vn 0.64944800 0.00000000 -0.76040600
vn 0.58778500 0.00000000 -0.80901700
vn 0.00000000 1.00000000 0.00000000
vn 0.58778500 0.00000000 -0.80901700
vn 0.52249900 0.00000000 -0.85264000
vn 0.00000000 1.00000000 0.00000000
vn 0.52249900 0.00000000 -0.85264000
vn 0.45399000 0.00000000 -0.89100700
vn 0.45399000 0.00000000 -0.89100700
vn 0.00000000 1.00000000 0.00000000
vn 0.38268300 0.00000000 -0.92388000
vn 0.38268300 0.00000000 -0.92388000
vn 0.00000000 1.00000000 0.00000000
vn 0.30901700 0.00000000 -0.95105700
vn 0.30901700 0.00000000 -0.95105700
vn 0.00000000 1.00000000 0.00000000
vn 0.23344500 0.00000000 -0.97237000
vn 0.23344500 0.00000000 -0.97237000
vn 0.00000000 1.00000000 0.00000000
vn 0.15643400 0.00000000 -0.98768800
vn 0.15643400 0.00000000 -0.98768800
vn 0.00000000 1.00000000 0.00000000
vn 0.07845910 0.00000000 -0.99691700
vn 0.07845910 0.00000000 -0.99691700
vn 0.00000000 1.00000000 0.00000000
vn 0.00000000 1.00000000 0.00000000
vn 1.00000000 0.00000000 0.00000000
vn 1.00000000 0.00000000 0.00000000
vn 1.00000000 0.00000000 0.00000000
vn 1.00000000 0.00000000 0.00000000
vn 0.07845910 0.00000000 0.99691700
vn 0.00000000 1.00000000 0.00000000
vn 0.07845910 0.00000000 0.99691700
vn 0.15643400 0.00000000 0.98768800
vn 0.00000000 1.00000000 0.00000000
vn 0.15643400 0.00000000 0.98768800
vn 0.23344500 0.00000000 0.97237000
vn 0.00000000 1.00000000 0.00000000
vn 0.23344500 0.00000000 0.97237000
vn 0.30901700 0.00000000 0.95105700
vn 0.00000000 1.00000000 0.00000000
vn 0.30901700 0.00000000 0.95105700
vn 0.38268300 0.00000000 0.92388000
vn 0.00000000 1.00000000 0.00000000
vn 0.38268300 0.00000000 0.92388000
vn 0.45399000 0.00000000 0.89100700
vn 0.00000000 1.00000000 0.00000000
vn 0.45399000 0.00000000 0.89100700
vn 0.52249900 0.00000000 0.85264000
vn 0.52249900 0.00000000 0.85264000
vn 0.00000000 1.00000000 0.00000000
vn 0.58778500 0.00000000 0.80901700
vn 0.58778500 0.00000000 0.80901700
vn 0.00000000 1.00000000 0.00000000
vn 0.64944800 0.00000000 0.76040600
vn 0.64944800 0.00000000 0.76040600
vn 0.00000000 1.00000000 0.00000000
vn 0.70710700 0.00000000 0.70710700
vn 0.00000000 1.00000000 0.00000000
vn 0.70710700 0.00000000 0.70710700
vn 0.76040600 0.00000000 0.64944800
vn 0.00000000 1.00000000 0.00000000
vn 0.76040600 0.00000000 0.64944800
vn 0.80901700 0.00000000 0.58778500
vn 0.00000000 1.00000000 0.00000000
vn 0.80901700 0.00000000 0.58778500
vn 0.85264000 0.00000000 0.52249900
vn 0.85264000 0.00000000 0.52249900
vn 0.00000000 1.00000000 0.00000000
vn 0.89100700 0.00000000 0.45399000
vn 0.89100700 0.00000000 0.45399000
vn 0.00000000 1.00000000 0.00000000
vn 0.92388000 0.00000000 0.38268300
vn 0.92388000 0.00000000 0.38268300
vn 0.00000000 1.00000000 0.00000000
vn 0.95105700 0.00000000 0.30901700
vn 0.95105700 0.00000000 0.30901700
vn 0.00000000 1.00000000 0.00000000
vn 0.97237000 0.00000000 0.23344500
vn 0.97237000 0.00000000 0.23344500
vn 0.00000000 1.00000000 0.00000000
vn 0.98768800 0.00000000 0.15643400
vn 0.00000000 1.00000000 0.00000000
vn 0.98768800 0.00000000 0.15643400
vn 0.99691700 0.00000000 0.07845910
vn 0.00000000 1.00000000 0.00000000
vn 0.99691700 0.00000000 0.07845910
vn 0.00000000 1.00000000 0.00000000
vn -0.89516300 0.00000000 0.44573800
vn 0.00000000 1.00000000 0.00000000
vn -0.93247200 0.00000000 0.36124200
vn 0.00000000 1.00000000 0.00000000
vn -0.85021700 0.00000000 0.52643200
vn 0.00000000 1.00000000 0.00000000
vn -0.79801700 0.00000000 0.60263500
vn 0.00000000 1.00000000 0.00000000
vn -0.73900900 0.00000000 0.67369600
vn -0.60263500 0.00000000 0.79801700
vn 0.00000000 1.00000000 0.00000000
vn -0.73900900 0.00000000 -0.67369600
vn 0.00000000 1.00000000 0.00000000
vn -0.79801700 0.00000000 -0.60263500
vn 0.00000000 1.00000000 0.00000000
vn -0.85021700 0.00000000 -0.52643200
vn 0.00000000 1.00000000 0.00000000
vn -0.89516300 0.00000000 -0.44573800
vn 0.00000000 1.00000000 0.00000000
vn -1.00000000 0.00000000 -0.00000000
vn -1.00000000 0.00000000 -0.00000000
vn 0.00000000 1.00000000 0.00000000
vn -1.00000000 0.00000000 -0.00000000
vn 0.00000000 1.00000000 0.00000000
vn -1.00000000 0.00000000 -0.00000000
vn -0.67369600 0.00000000 0.73900900
vn 0.00000000 1.00000000 0.00000000
vn 0.00000000 1.00000000 0.00000000
vn -0.44573800 0.00000000 0.89516300
vn 0.00000000 1.00000000 0.00000000
vn 0.00000000 0.00000000 1.00000000
vn -0.00000000 0.00000000 1.00000000
vn -0.60263500 0.00000000 -0.79801700
vn 0.00000000 1.00000000 0.00000000
vn -0.52643200 0.00000000 -0.85021700
vn 0.00000000 1.00000000 0.00000000
vn -0.67369600 0.00000000 -0.73900900
vn 0.00000000 1.00000000 0.00000000
vn 0.00000000 1.00000000 0.00000000
vn -0.93247200 0.00000000 -0.36124200
vn 0.00000000 1.00000000 0.00000000
vn -0.99573400 0.00000000 0.09226840
vn -0.52643200 0.00000000 0.85021700
vn 0.00000000 1.00000000 0.00000000
vn 0.00000000 0.00000000 1.00000000
vn 0.00000000 1.00000000 0.00000000
vn -0.00000000 0.00000000 1.00000000
vn 0.67369600 0.00000000 0.73900900
vn 0.00000000 1.00000000 0.00000000
vn 0.60263500 0.00000000 0.79801700
vn 0.00000000 1.00000000 0.00000000
vn 0.73900900 0.00000000 0.67369600
vn 0.00000000 1.00000000 0.00000000
vn 0.00000000 1.00000000 0.00000000
vn 0.79801700 0.00000000 0.60263500
vn 0.00000000 1.00000000 0.00000000
vn 1.00000000 0.00000000 0.00000000
vn 1.00000000 0.00000000 0.00000000
vn 0.00000000 1.00000000 0.00000000
vn 0.89516300 0.00000000 -0.44573800
vn 0.00000000 1.00000000 0.00000000
vn 0.93247200 0.00000000 -0.36124200
vn 0.00000000 1.00000000 0.00000000
vn 0.85021700 0.00000000 -0.52643200
vn 0.00000000 1.00000000 0.00000000
vn 0.79801700 0.00000000 -0.60263500
vn -0.98297300 0.00000000 -0.18375000
vn 0.00000000 1.00000000 0.00000000
vn 0.00000000 1.00000000 0.00000000
vn -0.96182600 0.00000000 -0.27366300
vn 0.00000000 1.00000000 0.00000000
vn -0.98297300 0.00000000 0.18375000
vn 0.00000000 1.00000000 0.00000000
vn -0.96182600 0.00000000 0.27366300
vn 0.00000000 1.00000000 0.00000000
vn -0.27366300 0.00000000 0.96182600
vn -0.36124200 0.00000000 0.93247200
vn 0.00000000 1.00000000 0.00000000
vn -0.09226840 0.00000000 0.99573400
vn 0.00000000 1.00000000 0.00000000
vn -0.18375000 0.00000000 0.98297300
vn 0.00000000 1.00000000 0.00000000
vn 0.00000000 1.00000000 0.00000000
vn 0.09226840 0.00000000 0.99573400
vn 0.36124200 0.00000000 0.93247200
vn 0.00000000 1.00000000 0.00000000
vn 0.00000000 1.00000000 0.00000000
vn 0.27366300 0.00000000 0.96182600
vn 0.00000000 1.00000000 0.00000000
vn 0.52643200 0.00000000 0.85021700
vn 0.00000000 1.00000000 0.00000000
vn 0.44573800 0.00000000 0.89516300
vn 0.85021700 0.00000000 0.52643200
vn 0.00000000 1.00000000 0.00000000
vn 0.89516300 0.00000000 0.44573800
vn 0.00000000 1.00000000 0.00000000
vn 1.00000000 0.00000000 0.00000000
vn 0.00000000 1.00000000 0.00000000
vn 1.00000000 0.00000000 0.00000000
vn 0.00000000 1.00000000 0.00000000
vn 0.73900900 0.00000000 -0.67369600
vn 0.60263500 0.00000000 -0.79801700
vn 0.00000000 1.00000000 0.00000000
vn 0.00000000 1.00000000 0.00000000
vn -0.99573400 0.00000000 -0.09226840
vn 0.18375000 0.00000000 0.98297300
vn 0.00000000 1.00000000 0.00000000
vn 0.00000000 1.00000000 0.00000000
vn 0.99573400 0.00000000 -0.09226840
vn 0.00000000 1.00000000 0.00000000
vn 0.67369600 0.00000000 -0.73900900
vn 0.00000000 1.00000000 0.00000000
vn -0.44573800 0.00000000 -0.89516300
vn -0.36124200 0.00000000 -0.93247200
vn 0.00000000 1.00000000 0.00000000
vn 0.96182600 0.00000000 0.27366300
vn 0.00000000 1.00000000 0.00000000
vn 0.93247200 0.00000000 0.36124200
vn 0.00000000 1.00000000 0.00000000
vn 0.99573400 0.00000000 0.09226840
vn 0.00000000 1.00000000 0.00000000
vn 0.98297300 0.00000000 0.18375000
vn 0.00000000 1.00000000 0.00000000
vn 0.98297300 0.00000000 -0.18375000
vn 0.00000000 1.00000000 0.00000000
vn 0.96182600 0.00000000 -0.27366300
vn 0.00000000 1.00000000 0.00000000
vn 0.00000000 1.00000000 0.00000000
vn 0.52643200 0.00000000 -0.85021700
vn 0.44573800 0.00000000 -0.89516300
vn 0.00000000 1.00000000 0.00000000
vn 0.00000000 1.00000000 0.00000000
vn 0.36124200 0.00000000 -0.93247200
vn 0.00000000 0.00000000 -1.00000000
vn 0.00000000 1.00000000 0.00000000
vn 0.00000000 0.00000000 -1.00000000
vn 0.00000000 0.00000000 -1.00000000
vn 0.00000000 0.00000000 -1.00000000
vn 0.00000000 1.00000000 0.00000000
vn 0.00000000 1.00000000 0.00000000
vn 0.27366300 0.00000000 -0.96182600
vn 0.09226840 0.00000000 -0.99573400
vn 0.00000000 1.00000000 0.00000000
vn -0.18375000 0.00000000 -0.98297300
vn 0.00000000 1.00000000 0.00000000
vn -0.09226840 0.00000000 -0.99573400
vn 0.00000000 1.00000000 0.00000000
vn 0.00000000 1.00000000 0.00000000
vn 0.18375000 0.00000000 -0.98297300
vn -0.27366300 0.00000000 -0.96182600
vn 0.00000000 1.00000000 0.00000000
vn 0.00000000 -1.00000000 0.00000000
vn 0.00000000 0.00000000 1.00000000
vn -0.00000000 0.00000000 1.00000000
vn -0.09226840 0.00000000 0.99573400
vn 0.00000000 -1.00000000 0.00000000
vn 0.00000000 -1.00000000 0.00000000
vn -0.18375000 0.00000000 0.98297300
vn -0.27366300 0.00000000 0.96182600
vn 0.00000000 -1.00000000 0.00000000
vn -0.36124200 0.00000000 0.93247200
vn 0.00000000 -1.00000000 0.00000000
vn -0.44573800 0.00000000 0.89516300
vn 0.00000000 -1.00000000 0.00000000
vn -0.52643200 0.00000000 0.85021700
vn 0.00000000 -1.00000000 0.00000000
vn -0.60263500 0.00000000 0.79801700
vn 0.00000000 -1.00000000 0.00000000
vn -0.67369600 0.00000000 0.73900900
vn 0.00000000 -1.00000000 0.00000000
vn -0.73900900 0.00000000 0.67369600
vn 0.00000000 -1.00000000 0.00000000
vn -0.79801700 0.00000000 0.60263500
vn 0.00000000 -1.00000000 0.00000000
vn 0.00000000 -1.00000000 0.00000000
vn -0.85021700 0.00000000 0.52643200
vn 0.00000000 -1.00000000 0.00000000
vn -0.89516300 0.00000000 0.44573800
vn 0.00000000 -1.00000000 0.00000000
vn -0.93247200 0.00000000 0.36124200
vn 0.00000000 -1.00000000 0.00000000
vn -0.96182600 0.00000000 0.27366300
vn 0.00000000 -1.00000000 0.00000000
vn -0.98297300 0.00000000 0.18375000
vn 0.00000000 -1.00000000 0.00000000
vn -0.99573400 0.00000000 0.09226840
vn -1.00000000 0.00000000 -0.00000000
vn 0.00000000 -1.00000000 0.00000000
vn -1.00000000 0.00000000 -0.00000000
vn 0.00000000 -1.00000000 0.00000000
vn -0.00000000 0.00000000 1.00000000
vn 0.00000000 0.00000000 1.00000000
vn 1.00000000 0.00000000 0.00000000
vn 1.00000000 0.00000000 0.00000000
vn 0.00000000 -1.00000000 0.00000000
vn 0.00000000 -1.00000000 0.00000000
vn 0.99573400 0.00000000 0.09226840
vn 0.00000000 -1.00000000 0.00000000
vn 0.98297300 0.00000000 0.18375000
vn 0.96182600 0.00000000 0.27366300
vn 0.00000000 -1.00000000 0.00000000
vn 0.93247200 0.00000000 0.36124200
vn 0.00000000 -1.00000000 0.00000000
vn 0.00000000 -1.00000000 0.00000000
vn 0.89516300 0.00000000 0.44573800
vn 0.85021700 0.00000000 0.52643200
vn 0.00000000 -1.00000000 0.00000000
vn 0.79801700 0.00000000 0.60263500
vn 0.00000000 -1.00000000 0.00000000
vn 0.00000000 -1.00000000 0.00000000
vn 0.73900900 0.00000000 0.67369600
vn 0.00000000 -1.00000000 0.00000000
vn 0.67369600 0.00000000 0.73900900
vn 0.60263500 0.00000000 0.79801700
vn 0.00000000 -1.00000000 0.00000000
vn 0.00000000 -1.00000000 0.00000000
vn 0.52643200 0.00000000 0.85021700
vn 0.00000000 -1.00000000 0.00000000
vn 0.44573800 0.00000000 0.89516300
vn 0.00000000 -1.00000000 0.00000000
vn 0.36124200 0.00000000 0.93247200
vn 0.27366300 0.00000000 0.96182600
vn 0.00000000 -1.00000000 0.00000000
vn 0.00000000 -1.00000000 0.00000000
vn 0.18375000 0.00000000 0.98297300
vn 0.00000000 -1.00000000 0.00000000
vn 0.09226840 0.00000000 0.99573400
vn 0.00000000 -1.00000000 0.00000000
vn 1.00000000 0.00000000 0.00000000
vn 1.00000000 0.00000000 0.00000000
vn 0.00000000 0.00000000 -1.00000000
vn 0.00000000 0.00000000 -1.00000000
vn 0.00000000 -1.00000000 0.00000000
vn 0.09226840 0.00000000 -0.99573400
vn 0.00000000 -1.00000000 0.00000000
vn 0.18375000 0.00000000 -0.98297300
vn 0.00000000 -1.00000000 0.00000000
vn 0.27366300 0.00000000 -0.96182600
vn 0.00000000 -1.00000000 0.00000000
vn 0.00000000 -1.00000000 0.00000000
vn 0.36124200 0.00000000 -0.93247200
vn 0.44573800 0.00000000 -0.89516300
vn 0.00000000 -1.00000000 0.00000000
vn 0.00000000 -1.00000000 0.00000000
vn 0.52643200 0.00000000 -0.85021700
vn 0.00000000 -1.00000000 0.00000000
vn 0.60263500 0.00000000 -0.79801700
vn 0.00000000 -1.00000000 0.00000000
vn 0.67369600 0.00000000 -0.73900900
vn 0.00000000 -1.00000000 0.00000000
vn 0.73900900 0.00000000 -0.67369600
vn 0.79801700 0.00000000 -0.60263500
vn 0.00000000 -1.00000000 0.00000000
vn 0.85021700 0.00000000 -0.52643200
vn 0.00000000 -1.00000000 0.00000000
vn 0.89516300 0.00000000 -0.44573800
vn 0.00000000 -1.00000000 0.00000000
vn 0.93247200 0.00000000 -0.36124200
vn 0.00000000 -1.00000000 0.00000000
vn 0.96182600 0.00000000 -0.27366300
vn 0.00000000 -1.00000000 0.00000000
vn 0.00000000 -1.00000000 0.00000000
vn 0.98297300 0.00000000 -0.18375000
vn 0.00000000 -1.00000000 0.00000000
vn 0.99573400 0.00000000 -0.09226840
vn 0.00000000 0.00000000 -1.00000000
vn 0.00000000 -1.00000000 0.00000000
vn 0.00000000 0.00000000 -1.00000000
vn 0.00000000 -1.00000000 0.00000000
vn -1.00000000 0.00000000 -0.00000000
vn -1.00000000 0.00000000 -0.00000000
vn -0.99573400 0.00000000 -0.09226840
vn 0.00000000 -1.00000000 0.00000000
vn -0.98297300 0.00000000 -0.18375000
vn 0.00000000 -1.00000000 0.00000000
vn 0.00000000 -1.00000000 0.00000000
vn -0.96182600 0.00000000 -0.27366300
vn -0.93247200 0.00000000 -0.36124200
vn 0.00000000 -1.00000000 0.00000000
vn -0.89516300 0.00000000 -0.44573800
vn 0.00000000 -1.00000000 0.00000000
vn -0.85021700 0.00000000 -0.52643200
vn 0.00000000 -1.00000000 0.00000000
vn 0.00000000 -1.00000000 0.00000000
vn -0.79801700 0.00000000 -0.60263500
vn 0.00000000 -1.00000000 0.00000000
vn -0.73900900 0.00000000 -0.67369600
vn -0.67369600 0.00000000 -0.73900900
vn 0.00000000 -1.00000000 0.00000000
vn -0.60263500 0.00000000 -0.79801700
vn 0.00000000 -1.00000000 0.00000000
vn -0.52643200 0.00000000 -0.85021700
vn 0.00000000 -1.00000000 0.00000000
vn -0.44573800 0.00000000 -0.89516300
vn 0.00000000 -1.00000000 0.00000000
vn -0.36124200 0.00000000 -0.93247200
vn 0.00000000 -1.00000000 0.00000000
vn -0.27366300 0.00000000 -0.96182600
vn 0.00000000 -1.00000000 0.00000000
vn -0.18375000 0.00000000 -0.98297300
vn 0.00000000 -1.00000000 0.00000000
vn 0.00000000 -1.00000000 0.00000000
vn -0.09226840 0.00000000 -0.99573400
vn 0.00000000 -1.00000000 0.00000000
vn 0.92388000 0.00000000 -0.38268300
vn 0.00000000 -1.00000000 0.00000000
vn 0.95105700 0.00000000 -0.30901700
vn 0.00000000 -1.00000000 0.00000000
vn 0.97237000 0.00000000 -0.23344500
vn 0.00000000 -1.00000000 0.00000000
vn 0.98768800 0.00000000 -0.15643400
vn 0.00000000 -1.00000000 0.00000000
vn 0.99691700 0.00000000 -0.07845910
vn 1.00000000 0.00000000 0.00000000
vn 0.00000000 -1.00000000 0.00000000
vn 1.00000000 0.00000000 0.00000000
vn 0.89100700 0.00000000 -0.45399000
vn 0.00000000 -1.00000000 0.00000000
vn -1.00000000 0.00000000 -0.00000000
vn -1.00000000 0.00000000 -0.00000000
vn 0.00000000 -1.00000000 0.00000000
vn -1.00000000 0.00000000 -0.00000000
vn -1.00000000 0.00000000 -0.00000000
vn 0.00000000 -1.00000000 0.00000000
vn 0.30901700 0.00000000 -0.95105700
vn 0.00000000 -1.00000000 0.00000000
vn 0.80901700 0.00000000 -0.58778500
vn 0.00000000 -1.00000000 0.00000000
vn 0.00000000 -1.00000000 0.00000000
vn 0.85264000 0.00000000 -0.52249900
vn -0.30901700 0.00000000 0.95105700
vn 0.00000000 -1.00000000 0.00000000
vn 0.00000000 -1.00000000 0.00000000
vn -0.99691700 0.00000000 0.07845910
vn 0.00000000 -1.00000000 0.00000000
vn 0.38268300 0.00000000 -0.92388000
vn 0.00000000 -1.00000000 0.00000000
vn 0.52249900 0.00000000 -0.85264000
vn 0.70710700 0.00000000 -0.70710700
vn 0.00000000 -1.00000000 0.00000000
vn 0.76040600 0.00000000 -0.64944800
vn 0.00000000 -1.00000000 0.00000000
vn 0.00000000 -1.00000000 0.00000000
vn 1.00000000 0.00000000 0.00000000
vn 1.00000000 0.00000000 0.00000000
vn 0.98768800 0.00000000 0.15643400
vn 0.00000000 -1.00000000 0.00000000
vn 0.00000000 -1.00000000 0.00000000
vn 0.92388000 0.00000000 0.38268300
vn 0.89100700 0.00000000 0.45399000
vn 0.00000000 -1.00000000 0.00000000
vn 0.00000000 -1.00000000 0.00000000
vn 0.95105700 0.00000000 0.30901700
vn 0.00000000 -1.00000000 0.00000000
vn 0.85264000 0.00000000 0.52249900
vn 0.00000000 -1.00000000 0.00000000
vn -0.38268300 0.00000000 0.92388000
vn 0.00000000 -1.00000000 0.00000000
vn -0.52249900 0.00000000 0.85264000
vn 0.00000000 -1.00000000 0.00000000
vn -0.92388000 0.00000000 0.38268300
vn -0.95105700 0.00000000 0.30901700
vn 0.00000000 -1.00000000 0.00000000
vn 0.00000000 -1.00000000 0.00000000
vn -0.85264000 0.00000000 0.52249900
vn 0.00000000 -1.00000000 0.00000000
vn -0.89100700 0.00000000 0.45399000
vn -0.97237000 0.00000000 0.23344500
vn 0.00000000 -1.00000000 0.00000000
vn 0.00000000 -1.00000000 0.00000000
vn -0.98768800 0.00000000 0.15643400
vn -0.95105700 0.00000000 -0.30901700
vn 0.00000000 -1.00000000 0.00000000
vn 0.00000000 -1.00000000 0.00000000
vn -0.70710700 0.00000000 -0.70710700
vn 0.00000000 -1.00000000 0.00000000
vn -0.64944800 0.00000000 -0.76040600
vn 0.00000000 -1.00000000 0.00000000
vn -0.58778500 0.00000000 -0.80901700
vn -0.52249900 0.00000000 -0.85264000
vn 0.00000000 -1.00000000 0.00000000
vn 0.00000000 -1.00000000 0.00000000
vn 0.00000000 0.00000000 -1.00000000
vn 0.00000000 0.00000000 -1.00000000
vn 0.00000000 -1.00000000 0.00000000
vn 0.45399000 0.00000000 -0.89100700
vn 0.58778500 0.00000000 -0.80901700
vn 0.00000000 -1.00000000 0.00000000
vn 0.64944800 0.00000000 -0.76040600
vn 0.00000000 -1.00000000 0.00000000
vn 0.99691700 0.00000000 0.07845910
vn 0.00000000 -1.00000000 0.00000000
vn 0.00000000 -1.00000000 0.00000000
vn 0.97237000 0.00000000 0.23344500
vn 0.80901700 0.00000000 0.58778500
vn 0.00000000 -1.00000000 0.00000000
vn 0.00000000 0.00000000 1.00000000
vn 0.00000000 0.00000000 1.00000000
vn 0.00000000 -1.00000000 0.00000000
vn 0.00000000 0.00000000 1.00000000
vn -0.00000000 0.00000000 1.00000000
vn 0.00000000 -1.00000000 0.00000000
vn -0.45399000 0.00000000 0.89100700
vn 0.00000000 -1.00000000 0.00000000
vn -0.58778500 0.00000000 0.80901700
vn 0.00000000 -1.00000000 0.00000000
vn -0.70710700 0.00000000 0.70710700
vn 0.00000000 -1.00000000 0.00000000
vn -0.76040600 0.00000000 0.64944800
vn 0.00000000 -1.00000000 0.00000000
vn -0.80901700 0.00000000 0.58778500
vn 0.00000000 -1.00000000 0.00000000
vn -0.98768800 0.00000000 -0.15643400
vn 0.00000000 -1.00000000 0.00000000
vn -0.92388000 0.00000000 -0.38268300
vn 0.00000000 -1.00000000 0.00000000
vn 0.00000000 -1.00000000 0.00000000
vn -0.85264000 0.00000000 -0.52249900
vn -0.76040600 0.00000000 -0.64944800
vn 0.00000000 -1.00000000 0.00000000
vn -0.38268300 0.00000000 -0.92388000
vn 0.00000000 -1.00000000 0.00000000
vn -0.30901700 0.00000000 -0.95105700
vn 0.00000000 -1.00000000 0.00000000
vn -0.45399000 0.00000000 -0.89100700
vn 0.00000000 -1.00000000 0.00000000
vn -0.23344500 0.00000000 -0.97237000
vn 0.00000000 -1.00000000 0.00000000
vn -0.15643400 0.00000000 -0.98768800
vn 0.00000000 -1.00000000 0.00000000
vn 0.00000000 -1.00000000 0.00000000
vn 0.07845910 0.00000000 -0.99691700
vn 0.00000000 -1.00000000 0.00000000
vn 0.15643400 0.00000000 -0.98768800
vn 0.76040600 0.00000000 0.64944800
vn 0.00000000 -1.00000000 0.00000000
vn 0.00000000 -1.00000000 0.00000000
vn 0.70710700 0.00000000 0.70710700
vn 0.00000000 -1.00000000 0.00000000
vn 0.58778500 0.00000000 0.80901700
vn 0.00000000 -1.00000000 0.00000000
vn 0.52249900 0.00000000 0.85264000
vn 0.00000000 -1.00000000 0.00000000
vn 0.38268300 0.00000000 0.92388000
vn 0.00000000 -1.00000000 0.00000000
vn 0.30901700 0.00000000 0.95105700
vn 0.00000000 -1.00000000 0.00000000
vn -0.15643400 0.00000000 0.98768800
vn 0.00000000 -1.00000000 0.00000000
vn -0.64944800 0.00000000 0.76040600
vn 0.00000000 -1.00000000 0.00000000
vn -0.99691700 0.00000000 -0.07845910
vn 0.00000000 -1.00000000 0.00000000
vn -0.97237000 0.00000000 -0.23344500
vn -0.89100700 0.00000000 -0.45399000
vn 0.00000000 -1.00000000 0.00000000
vn -0.80901700 0.00000000 -0.58778500
vn 0.00000000 -1.00000000 0.00000000
vn -0.07845910 0.00000000 -0.99691700
vn 0.00000000 -1.00000000 0.00000000
vn 0.00000000 0.00000000 -1.00000000
vn 0.00000000 0.00000000 -1.00000000
vn 0.00000000 -1.00000000 0.00000000
vn 0.23344500 0.00000000 -0.97237000
vn 0.00000000 -1.00000000 0.00000000
vn 0.00000000 -1.00000000 0.00000000
vn 0.64944800 0.00000000 0.76040600
vn 0.00000000 -1.00000000 0.00000000
vn 0.45399000 0.00000000 0.89100700
vn -0.07845910 0.00000000 0.99691700
vn 0.00000000 -1.00000000 0.00000000
vn 0.00000000 -1.00000000 0.00000000
vn -0.23344500 0.00000000 0.97237000
vn 0.23344500 0.00000000 0.97237000
vn 0.00000000 -1.00000000 0.00000000
vn 0.00000000 -1.00000000 0.00000000
vn 0.15643400 0.00000000 0.98768800
vn 0.00000000 -1.00000000 0.00000000
vn 0.07845910 0.00000000 0.99691700
vn 0.00000000 0.00000000 1.00000000
vn -0.00000000 0.00000000 1.00000000
vn -1.00000000 0.00000000 -0.00000000
vn -1.00000000 0.00000000 -0.00000000
vn 1.00000000 0.00000000 0.00000000
vn 1.00000000 0.00000000 0.00000000
vn 1.00000000 0.00000000 0.00000000
vn 1.00000000 0.00000000 0.00000000
vn 0.15643400 0.00000000 0.98768800
vn 0.23344500 0.00000000 0.97237000
vn 0.00000000 0.00000000 1.00000000
vn 0.00000000 0.00000000 1.00000000
vn -0.99691700 0.00000000 -0.07845910
vn 0.99691700 0.00000000 0.07845910
vn 0.07845910 0.00000000 0.99691700
vn -0.07845910 0.00000000 0.99691700
vn -1.00000000 0.00000000 -0.00000000
vn -1.00000000 0.00000000 -0.00000000
vn -0.99691700 0.00000000 0.07845910
vn 0.64944800 0.00000000 -0.76040600
vn 0.58778500 0.00000000 -0.80901700
vn 0.97237000 0.00000000 -0.23344500
vn 0.95105700 0.00000000 -0.30901700
vn 0.99691700 0.00000000 -0.07845910
vn 0.58778500 0.00000000 0.80901700
vn 0.64944800 0.00000000 0.76040600
vn 0.38268300 0.00000000 0.92388000
vn 0.45399000 0.00000000 0.89100700
vn -0.15643400 0.00000000 0.98768800
vn -0.30901700 0.00000000 0.95105700
vn -0.23344500 0.00000000 0.97237000
vn -0.98768800 0.00000000 -0.15643400
vn -0.95105700 0.00000000 -0.30901700
vn -0.97237000 0.00000000 -0.23344500
vn -0.76040600 0.00000000 -0.64944800
vn -0.80901700 0.00000000 -0.58778500
vn 0.23344500 0.00000000 -0.97237000
vn 0.15643400 0.00000000 -0.98768800
vn 0.38268300 0.00000000 -0.92388000
vn 0.30901700 0.00000000 -0.95105700
vn 0.52249900 0.00000000 -0.85264000
vn 0.85264000 0.00000000 -0.52249900
vn 0.80901700 0.00000000 -0.58778500
vn 0.98768800 0.00000000 -0.15643400
vn 0.98768800 0.00000000 0.15643400
vn 0.70710700 0.00000000 0.70710700
vn 0.76040600 0.00000000 0.64944800
vn 0.52249900 0.00000000 0.85264000
vn 0.30901700 0.00000000 0.95105700
vn -0.52249900 0.00000000 0.85264000
vn -0.45399000 0.00000000 0.89100700
vn -0.98768800 0.00000000 0.15643400
vn -0.97237000 0.00000000 0.23344500
vn -0.85264000 0.00000000 -0.52249900
vn -0.89100700 0.00000000 -0.45399000
vn -0.70710700 0.00000000 -0.70710700
vn -0.52249900 0.00000000 -0.85264000
vn -0.58778500 0.00000000 -0.80901700
vn 0.45399000 0.00000000 -0.89100700
vn 0.89100700 0.00000000 -0.45399000
vn 0.95105700 0.00000000 0.30901700
vn 0.97237000 0.00000000 0.23344500
vn -0.38268300 0.00000000 0.92388000
vn -0.92388000 0.00000000 -0.38268300
vn -0.64944800 0.00000000 -0.76040600
vn -0.45399000 0.00000000 -0.89100700
vn 0.92388000 0.00000000 -0.38268300
vn 0.89100700 0.00000000 0.45399000
vn 0.92388000 0.00000000 0.38268300
vn 0.80901700 0.00000000 0.58778500
vn 0.85264000 0.00000000 0.52249900
vn -0.58778500 0.00000000 0.80901700
vn -0.70710700 0.00000000 0.70710700
vn -0.64944800 0.00000000 0.76040600
vn -0.80901700 0.00000000 0.58778500
vn -0.76040600 0.00000000 0.64944800
vn -0.23344500 0.00000000 -0.97237000
vn -0.30901700 0.00000000 -0.95105700
vn 0.07845910 0.00000000 -0.99691700
vn 0.76040600 0.00000000 -0.64944800
vn 0.70710700 0.00000000 -0.70710700
vn -0.38268300 0.00000000 -0.92388000
vn 0.00000000 0.00000000 -1.00000000
vn 0.00000000 0.00000000 -1.00000000
vn -0.89100700 0.00000000 0.45399000
vn -0.85264000 0.00000000 0.52249900
vn -0.95105700 0.00000000 0.30901700
vn -0.92388000 0.00000000 0.38268300
vn -0.07845910 0.00000000 -0.99691700
vn -0.15643400 0.00000000 -0.98768800
vn 0.00000000 0.00000000 -1.00000000
vn 0.00000000 0.00000000 -1.00000000
f 1//1 4//4 7//7
f 7//7 8//8 1//1
f 13//13 14//14 16//16
f 17//17 16//16 19//19
f 21//21 19//19 22//22
f 24//24 22//22 25//25
f 26//26 25//25 28//28
f 29//29 28//28 31//31
f 33//33 31//31 34//34
f 36//36 34//34 37//37
f 39//39 37//37 40//40
f 41//41 40//40 43//43
f 45//45 43//43 46//46
f 48//48 46//46 49//49
f 50//50 49//49 52//52
f 54//54 52//52 55//55
f 57//57 55//55 58//58
f 59//59 58//58 61//61
f 63//63 61//61 64//64
f 66//66 64//64 67//67
f 68//68 67//67 70//70
f 72//72 70//70 5//5
f 5//5 2//2 72//72
f 70//70 72//72 68//68
f 67//67 68//68 66//66
f 64//64 66//66 63//63
f 61//61 63//63 59//59
f 58//58 59//59 57//57
f 55//55 57//57 54//54
f 52//52 54//54 50//50
f 49//49 50//50 48//48
f 46//46 48//48 45//45
f 43//43 45//45 41//41
f 40//40 41//41 39//39
f 37//37 39//39 36//36
f 34//34 36//36 33//33
f 31//31 33//33 29//29
f 28//28 29//29 26//26
f 25//25 26//26 24//24
f 22//22 24//24 21//21
f 19//19 21//21 17//17
f 16//16 17//17 13//13
f 75//75 76//76 15//15
f 15//15 11//11 75//75
f 78//78 81//81 83//83
f 85//85 83//83 86//86
f 87//87 86//86 89//89
f 90//90 89//89 92//92
f 93//93 92//92 95//95
f 96//96 95//95 98//98
f 100//100 98//98 101//101
f 102//102 101//101 104//104
f 106//106 104//104 107//107
f 108//108 107//107 110//110
f 112//112 110//110 113//113
f 115//115 113//113 116//116
f 118//118 116//116 119//119
f 121//121 119//119 122//122
f 123//123 122//122 125//125
f 126//126 125//125 128//128
f 129//129 128//128 131//131
f 132//132 131//131 134//134
f 136//136 134//134 137//137
f 139//139 137//137 77//77
f 77//77 73//73 139//139
f 137//137 139//139 136//136
f 134//134 136//136 132//132
f 131//131 132//132 129//129
f 128//128 129//129 126//126
f 125//125 126//126 123//123
f 122//122 123//123 121//121
f 119//119 121//121 118//118
f 116//116 118//118 115//115
f 113//113 115//115 112//112
f 110//110 112//112 108//108
f 107//107 108//108 106//106
f 104//104 106//106 102//102
f 101//101 102//102 100//100
f 98//98 100//100 96//96
f 95//95 96//96 93//93
f 92//92 93//93 90//90
f 89//89 90//90 87//87
f 86//86 87//87 85//85
f 83//83 85//85 78//78
f 79//79 141//141 143//143
f 143//143 82//82 79//79
f 147//147 149//149 150//150
f 151//151 150//150 153//153
f 154//154 153//153 156//156
f 158//158 156//156 159//159
f 161//161 159//159 162//162
f 164//164 162//162 165//165
f 166//166 165//165 168//168
f 169//169 168//168 171//171
f 173//173 171//171 174//174
f 176//176 174//174 177//177
f 179//179 177//177 180//180
f 182//182 180//180 183//183
f 185//185 183//183 186//186
f 188//188 186//186 189//189
f 190//190 189//189 192//192
f 193//193 192//192 195//195
f 196//196 195//195 198//198
f 199//199 198//198 201//201
f 202//202 201//201 204//204
f 205//205 204//204 144//144
f 144//144 142//142 205//205
f 204//204 205//205 202//202
f 201//201 202//202 199//199
f 198//198 199//199 196//196
f 195//195 196//196 193//193
f 192//192 193//193 190//190
f 189//189 190//190 188//188
f 186//186 188//188 185//185
f 183//183 185//185 182//182
f 180//180 182//182 179//179
f 177//177 179//179 176//176
f 174//174 176//176 173//173
f 171//171 173//173 169//169
f 168//168 169//169 166//166
f 165//165 166//166 164//164
f 162//162 164//164 161//161
f 159//159 161//161 158//158
f 156//156 158//158 154//154
f 153//153 154//154 151//151
f 150//150 151//151 147//147
f 146//146 209//209 211//211
f 211//211 148//148 146//146
f 10//10 6//6 212//212
f 214//214 212//212 215//215
f 217//217 215//215 218//218
f 220//220 218//218 221//221
f 223//223 221//221 224//224
f 226//226 224//224 227//227
f 229//229 227//227 230//230
f 231//231 230//230 233//233
f 234//234 233//233 236//236
f 237//237 236//236 239//239
f 241//241 239//239 242//242
f 244//244 242//242 245//245
f 247//247 245//245 248//248
f 249//249 248//248 251//251
f 252//252 251//251 254//254
f 255//255 254//254 257//257
f 258//258 257//257 260//260
f 261//261 260//260 263//263
f 265//265 263//263 266//266
f 268//268 266//266 210//210
f 210//210 208//208 268//268
f 266//266 268//268 265//265
f 263//263 265//265 261//261
f 260//260 261//261 258//258
f 257//257 258//258 255//255
f 254//254 255//255 252//252
f 251//251 252//252 249//249
f 248//248 249//249 247//247
f 245//245 247//247 244//244
f 242//242 244//244 241//241
f 239//239 241//241 237//237
f 236//236 237//237 234//234
f 233//233 234//234 231//231
f 230//230 231//231 229//229
f 227//227 229//229 226//226
f 224//224 226//226 223//223
f 221//221 223//223 220//220
f 218//218 220//220 217//217
f 215//215 217//217 214//214
f 212//212 214//214 10//10
f 269//269 271//271 145//145
f 273//273 269//269 155//155
f 275//275 273//273 160//160
f 145//145 152//152 269//269
f 155//155 157//157 273//273
f 160//160 163//163 275//275
f 157//157 160//160 273//273
f 163//163 167//167 275//275
f 277//277 275//275 170//170
f 280//280 194//194 197//197
f 282//282 246//246 250//250
f 284//284 256//256 259//259
f 284//284 250//250 253//253
f 286//286 262//262 264//264
f 288//288 267//267 207//207
f 145//145 291//291 293//293
f 167//167 170//170 275//275
f 170//170 172//172 277//277
f 178//178 181//181 296//296
f 296//296 184//184 187//187
f 280//280 191//191 194//194
f 282//282 243//243 246//246
f 253//253 256//256 284//284
f 286//286 259//259 262//262
f 288//288 264//264 267//267
f 293//293 207//207 145//145
f 172//172 175//175 277//277
f 277//277 175//175 178//178
f 296//296 181//181 184//184
f 280//280 187//187 191//191
f 297//297 206//206 140//140
f 140//140 80//80 299//299
f 303//303 305//305 222//222
f 307//307 303//303 232//232
f 240//240 243//243 282//282
f 259//259 286//286 284//284
f 207//207 308//308 288//288
f 145//145 310//310 291//291
f 296//296 277//277 178//178
f 197//197 313//313 280//280
f 313//313 200//200 203//203
f 297//297 203//203 206//206
f 299//299 315//315 140//140
f 318//318 320//320 103//103
f 111//111 322//322 318//318
f 323//323 127//127 130//130
f 74//74 12//12 325//325
f 328//328 330//330 12//12
f 332//332 328//328 20//20
f 334//334 30//30 32//32
f 334//334 332//332 27//27
f 222//222 225//225 303//303
f 232//232 235//235 307//307
f 307//307 238//238 240//240
f 264//264 288//288 286//286
f 207//207 337//337 338//338
f 145//145 340//340 310//310
f 145//145 271//271 342//342
f 187//187 280//280 296//296
f 313//313 197//197 200//200
f 140//140 344//344 347//347
f 140//140 349//349 351//351
f 80//80 352//352 299//299
f 80//80 355//355 356//356
f 358//358 360//360 88//88
f 320//320 97//97 99//99
f 320//320 358//358 94//94
f 103//103 105//105 318//318
f 318//318 109//109 111//111
f 322//322 117//117 120//120
f 323//323 124//124 127//127
f 363//363 133//133 135//135
f 365//365 138//138 74//74
f 325//325 367//367 74//74
f 12//12 18//18 328//328
f 20//20 23//23 332//332
f 27//27 30//30 334//334
f 369//369 334//334 35//35
f 372//372 60//60 62//62
f 225//225 228//228 303//303
f 282//282 307//307 240//240
f 338//338 308//308 207//207
f 293//293 373//373 207//207
f 152//152 155//155 269//269
f 140//140 347//347 297//297
f 315//315 349//349 140//140
f 356//356 376//376 80//80
f 360//360 355//355 80//80
f 88//88 91//91 358//358
f 94//94 97//97 320//320
f 111//111 114//114 322//322
f 322//322 114//114 117//117
f 323//323 120//120 124//124
f 363//363 130//130 133//133
f 365//365 135//135 138//138
f 12//12 377//377 325//325
f 18//18 20//20 328//328
f 32//32 35//35 334//334
f 35//35 38//38 369//369
f 44//44 379//379 369//369
f 379//379 51//51 53//53
f 372//372 56//56 60//60
f 381//381 384//384 9//9
f 305//305 381//381 216//216
f 235//235 238//238 307//307
f 373//373 337//337 207//207
f 203//203 297//297 313//313
f 376//376 352//352 80//80
f 80//80 84//84 360//360
f 99//99 103//103 320//320
f 120//120 323//323 322//322
f 135//135 365//365 363//363
f 74//74 386//386 388//388
f 74//74 390//390 392//392
f 12//12 394//394 377//377
f 330//330 396//396 12//12
f 38//38 42//42 369//369
f 369//369 42//42 44//44
f 379//379 47//47 51//51
f 372//372 53//53 56//56
f 397//397 65//65 69//69
f 400//400 71//71 3//3
f 9//9 213//213 381//381
f 216//216 219//219 305//305
f 250//250 284//284 282//282
f 351//351 344//344 140//140
f 91//91 94//94 358//358
f 130//130 363//363 323//323
f 392//392 386//386 74//74
f 396//396 394//394 12//12
f 44//44 47//47 379//379
f 62//62 397//397 372//372
f 397//397 62//62 65//65
f 400//400 69//69 71//71
f 219//219 222//222 305//305
f 342//342 340//340 145//145
f 105//105 109//109 318//318
f 367//367 390//390 74//74
f 53//53 372//372 379//379
f 3//3 401//401 400//400
f 9//9 404//404 408//408
f 213//213 216//216 381//381
f 84//84 88//88 360//360
f 23//23 27//27 332//332
f 3//3 409//409 401//401
f 408//408 3//3 9//9
f 228//228 232//232 303//303
f 69//69 400//400 397//397
f 408//408 412//412 3//3
f 9//9 414//414 416//416
f 74//74 388//388 365//365
f 412//412 417//417 3//3
f 9//9 420//420 414//414
f 417//417 409//409 3//3
f 384//384 420//420 9//9
f 416//416 404//404 9//9
f 348//348 316//316 423//423
f 350//350 348//348 424//424
f 345//345 350//350 427//427
f 346//346 345//345 428//428
f 298//298 346//346 430//430
f 312//312 298//298 432//432
f 279//279 312//312 434//434
f 295//295 279//279 436//436
f 278//278 295//295 438//438
f 276//276 278//278 440//440
f 274//274 276//276 442//442
f 270//270 274//274 445//445
f 272//272 270//270 447//447
f 343//343 272//272 449//449
f 341//341 343//343 451//451
f 311//311 341//341 453//453
f 289//289 311//311 455//455
f 455//455 458//458 289//289
f 453//453 455//455 311//311
f 451//451 453//453 341//341
f 449//449 451//451 343//343
f 447//447 449//449 272//272
f 445//445 447//447 270//270
f 442//442 445//445 274//274
f 440//440 442//442 276//276
f 438//438 440//440 278//278
f 436//436 438//438 295//295
f 434//434 436//436 279//279
f 432//432 434//434 312//312
f 430//430 432//432 298//298
f 428//428 430//430 346//346
f 427//427 428//428 345//345
f 424//424 427//427 350//350
f 423//423 424//424 348//348
f 422//422 314//314 300//300
f 300//300 461//461 422//422
f 389//389 368//368 462//462
f 391//391 389//389 466//466
f 385//385 391//391 468//468
f 387//387 385//385 469//469
f 364//364 387//387 471//471
f 362//362 364//364 474//474
f 324//324 362//362 475//475
f 321//321 324//324 477//477
f 317//317 321//321 480//480
f 319//319 317//317 482//482
f 359//359 319//319 483//483
f 361//361 359//359 486//486
f 354//354 361//361 488//488
f 357//357 354//354 490//490
f 375//375 357//357 491//491
f 353//353 375//375 494//494
f 301//301 353//353 496//496
f 496//496 460//460 301//301
f 494//494 496//496 353//353
f 491//491 494//494 375//375
f 490//490 491//491 357//357
f 488//488 490//490 354//354
f 486//486 488//488 361//361
f 483//483 486//486 359//359
f 482//482 483//483 319//319
f 480//480 482//482 317//317
f 477//477 480//480 321//321
f 475//475 477//477 324//324
f 474//474 475//475 362//362
f 471//471 474//474 364//364
f 469//469 471//471 387//387
f 468//468 469//469 385//385
f 466//466 468//468 391//391
f 462//462 466//466 389//389
f 463//463 366//366 326//326
f 326//326 498//498 463//463
f 411//411 407//407 500//500
f 418//418 411//411 503//503
f 410//410 418//418 505//505
f 402//402 410//410 507//507
f 399//399 402//402 510//510
f 398//398 399//399 511//511
f 371//371 398//398 514//514
f 380//380 371//371 516//516
f 370//370 380//380 518//518
f 335//335 370//370 520//520
f 333//333 335//335 521//521
f 329//329 333//333 523//523
f 331//331 329//329 525//525
f 395//395 331//331 527//527
f 393//393 395//395 529//529
f 378//378 393//393 532//532
f 327//327 378//378 534//534
f 534//534 499//499 327//327
f 532//532 534//534 378//378
f 529//529 532//532 393//393
f 527//527 529//529 395//395
f 525//525 527//527 331//331
f 523//523 525//525 329//329
f 521//521 523//523 333//333
f 520//520 521//521 335//335
f 518//518 520//520 370//370
f 516//516 518//518 380//380
f 514//514 516//516 371//371
f 511//511 514//514 398//398
f 510//510 511//511 399//399
f 507//507 510//510 402//402
f 505//505 507//507 410//410
f 503//503 505//505 418//418
f 500//500 503//503 411//411
f 501//501 406//406 405//405
f 405//405 535//535 501//501
f 374//374 294//294 540//540
f 336//336 374//374 541//541
f 339//339 336//336 543//543
f 309//309 339//339 546//546
f 287//287 309//309 547//547
f 285//285 287//287 549//549
f 283//283 285//285 551//551
f 281//281 283//283 554//554
f 306//306 281//281 556//556
f 302//302 306//306 557//557
f 304//304 302//302 559//559
f 382//382 304//304 561//561
f 383//383 382//382 563//563
f 419//419 383//383 565//565
f 413//413 419//419 567//567
f 415//415 413//413 569//569
f 403//403 415//415 572//572
f 572//572 537//537 403//403
f 569//569 572//572 415//415
f 567//567 569//569 413//413
f 565//565 567//567 419//419
f 563//563 565//565 383//383
f 561//561 563//563 382//382
f 559//559 561//561 304//304
f 557//557 559//559 302//302
f 556//556 557//557 306//306
f 554//554 556//556 281//281
f 551//551 554//554 283//283
f 549//549 551//551 285//285
f 547//547 549//549 287//287
f 546//546 547//547 309//309
f 543//543 546//546 339//339
f 541//541 543//543 336//336
f 540//540 541//541 374//374
f 539//539 292//292 290//290
f 290//290 456//456 539//539
f 443//443 573//573 575//575
f 444//444 577//577 579//579
f 446//446 581//581 584//584
f 443//443 587//587 573//573
f 444//444 575//575 577//577
f 446//446 579//579 581//581
f 590//590 593//593 464//464
f 437//437 435//435 595//595
f 441//441 597//597 598//598
f 443//443 598//598 587//587
f 584//584 448//448 446//446
f 515//515 513//513 601//601
f 526//526 602//602 590//590
f 464//464 497//497 590//590
f 595//595 604//604 437//437
f 439//439 437//437 606//606
f 609//609 441//441 439//439
f 441//441 611//611 597//597
f 579//579 446//446 444//444
f 584//584 612//612 538//538
f 550//550 548//548 612//612
f 552//552 550//550 616//616
f 553//553 617//617 620//620
f 553//553 552//552 621//621
f 555//555 553//553 623//623
f 601//601 625//625 515//515
f 517//517 515//515 627//627
f 522//522 629//629 632//632
f 522//522 633//633 635//635
f 524//524 638//638 639//639
f 526//526 639//639 602//602
f 593//593 465//465 464//464
f 478//478 476//476 642//642
f 643//643 645//645 481//481
f 481//481 647//647 650//650
f 433//433 431//431 651//651
f 604//604 654//654 437//437
f 606//606 657//657 439//439
f 439//439 659//659 609//609
f 575//575 444//444 443//443
f 538//538 457//457 584//584
f 612//612 661//661 550//550
f 616//616 662//662 552//552
f 621//621 617//617 553//553
f 623//623 665//665 555//555
f 668//668 671//671 502//502
f 625//625 673//673 515//515
f 627//627 675//675 517//517
f 677//677 679//679 519//519
f 519//519 681//681 633//633
f 635//635 629//629 522//522
f 524//524 632//632 638//638
f 590//590 530//530 528//528
f 497//497 533//533 590//590
f 593//593 470//470 467//467
f 473//473 472//472 593//593
f 476//476 473//473 683//683
f 642//642 685//685 478//478
f 479//479 478//478 686//686
f 479//479 689//689 643//643
f 481//481 645//645 647//647
f 484//484 691//691 693//693
f 484//484 650//650 695//695
f 485//485 697//697 699//699
f 651//651 700//700 433//433
f 435//435 433//433 702//702
f 657//657 659//659 439//439
f 598//598 443//443 441//441
f 612//612 542//542 538//538
f 662//662 621//621 552//552
f 665//665 705//705 555//555
f 706//706 558//558 555//555
f 558//558 708//708 710//710
f 560//560 712//712 714//714
f 671//671 504//504 502//502
f 512//512 509//509 671//671
f 513//513 512//512 716//716
f 675//675 718//718 517//517
f 517//517 718//718 677//677
f 519//519 679//679 681//681
f 639//639 526//526 524//524
f 590//590 531//531 530//530
f 467//467 465//465 593//593
f 593//593 720//720 473//473
f 683//683 722//722 476//476
f 685//685 725//725 478//478
f 686//686 727//727 479//479
f 650//650 484//484 481//481
f 695//695 691//691 484//484
f 485//485 693//693 697//697
f 487//487 729//729 732//732
f 700//700 702//702 433//433
f 702//702 734//734 435//435
f 609//609 611//611 441//441
f 584//584 452//452 450//450
f 457//457 454//454 584//584
f 612//612 548//548 545//545
f 620//620 623//623 553//553
f 555//555 705//705 706//706
f 558//558 735//735 708//708
f 560//560 737//737 712//712
f 502//502 536//536 668//668
f 671//671 740//740 512//512
f 716//716 741//741 513//513
f 519//519 517//517 677//677
f 632//632 524//524 522//522
f 533//533 531//531 590//590
f 720//720 683//683 473//473
f 725//725 686//686 478//478
f 481//481 479//479 643//643
f 699//699 487//487 485//485
f 487//487 699//699 729//729
f 732//732 493//493 492//492
f 732//732 651//651 421//421
f 651//651 429//429 426//426
f 734//734 595//595 435//435
f 450//450 448//448 584//584
f 612//612 544//544 542//542
f 661//661 616//616 550//550
f 710//710 560//560 558//558
f 560//560 710//710 737//737
f 562//562 744//744 745//745
f 564//564 747//747 668//668
f 536//536 571//571 668//668
f 741//741 601//601 513//513
f 633//633 522//522 519//519
f 472//472 470//470 593//593
f 727//727 689//689 479//479
f 732//732 489//489 487//487
f 732//732 495//495 493//493
f 421//421 459//459 732//732
f 426//426 425//425 651//651
f 654//654 606//606 437//437
f 545//545 544//544 612//612
f 714//714 562//562 560//560
f 562//562 714//714 744//744
f 564//564 745//745 747//747
f 671//671 506//506 504//504
f 740//740 716//716 512//512
f 590//590 528//528 526//526
f 693//693 485//485 484//484
f 459//459 495//495 732//732
f 431//431 429//429 651//651
f 706//706 735//735 558//558
f 668//668 566//566 564//564
f 571//571 570//570 668//668
f 673//673 627//627 515//515
f 492//492 489//489 732//732
f 454//454 452//452 584//584
f 668//668 568//568 566//566
f 671//671 508//508 506//506
f 722//722 642//642 476//476
f 745//745 564//564 562//562
f 509//509 508//508 671//671
f 570//570 568//568 668//668
f 425//425 421//421 651//651
f 669//669 667//667 760//760
f 760//760 749//749 669//669
f 765//765 589//589 603//603
f 767//767 603//603 640//640
f 800//800 640//640 637//637
f 801//801 637//637 631//631
f 835//835 631//631 630//630
f 836//836 630//630 636//636
f 833//833 636//636 634//634
f 834//834 634//634 680//680
f 823//823 680//680 678//678
f 824//824 678//678 676//676
f 821//821 676//676 719//719
f 822//822 719//719 674//674
f 820//820 674//674 628//628
f 798//798 628//628 672//672
f 799//799 672//672 626//626
f 811//811 626//626 600//600
f 778//778 600//600 742//742
f 779//779 742//742 717//717
f 777//777 717//717 739//739
f 764//764 739//739 670//670
f 670//670 750//750 764//764
f 739//739 764//764 777//777
f 717//717 777//777 779//779
f 742//742 779//779 778//778
f 600//600 778//778 811//811
f 626//626 811//811 799//799
f 672//672 799//799 798//798
f 628//628 798//798 820//820
f 674//674 820//820 822//822
f 719//719 822//822 821//821
f 676//676 821//821 824//824
f 678//678 824//824 823//823
f 680//680 823//823 834//834
f 634//634 834//834 833//833
f 636//636 833//833 836//836
f 630//630 836//836 835//835
f 631//631 835//835 801//801
f 637//637 801//801 800//800
f 640//640 800//800 767//767
f 603//603 767//767 765//765
f 766//766 752//752 591//591
f 591//591 588//588 766//766
f 839//839 731//731 728//728
f 837//837 728//728 698//698
f 838//838 698//698 696//696
f 825//825 696//696 692//692
f 826//826 692//692 690//690
f 830//830 690//690 694//694
f 814//814 694//694 649//649
f 805//805 649//649 648//648
f 806//806 648//648 646//646
f 813//813 646//646 644//644
f 804//804 644//644 688//688
f 783//783 688//688 726//726
f 784//784 726//726 687//687
f 802//802 687//687 724//724
f 803//803 724//724 684//684
f 812//812 684//684 641//641
f 781//781 641//641 723//723
f 782//782 723//723 682//682
f 780//780 682//682 721//721
f 761//761 721//721 592//592
f 592//592 751//751 761//761
f 721//721 761//761 780//780
f 682//682 780//780 782//782
f 723//723 782//782 781//781
f 641//641 781//781 812//812
f 684//684 812//812 803//803
f 724//724 803//803 802//802
f 687//687 802//802 784//784
f 726//726 784//784 783//783
f 688//688 783//783 804//804
f 644//644 804//804 813//813
f 646//646 813//813 806//806
f 648//648 806//806 805//805
f 649//649 805//805 814//814
f 694//694 814//814 830//830
f 690//690 830//830 826//826
f 692//692 826//826 825//825
f 696//696 825//825 838//838
f 698//698 838//838 837//837
f 728//728 837//837 839//839
f 730//730 840//840 831//831
f 831//831 652//652 730//730
f 756//756 585//585 582//582
f 772//772 582//582 580//580
f 792//792 580//580 578//578
f 770//770 578//578 576//576
f 771//771 576//576 574//574
f 815//815 574//574 586//586
f 808//808 586//586 599//599
f 790//790 599//599 596//596
f 791//791 596//596 610//610
f 828//828 610//610 608//608
f 829//829 608//608 658//658
f 768//768 658//658 656//656
f 769//769 656//656 607//607
f 789//789 607//607 655//655
f 807//807 655//655 605//605
f 787//787 605//605 594//594
f 788//788 594//594 733//733
f 785//785 733//733 703//703
f 786//786 703//703 701//701
f 827//827 701//701 653//653
f 653//653 832//832 827//827
f 701//701 827//827 786//786
f 703//703 786//786 785//785
f 733//733 785//785 788//788
f 594//594 788//788 787//787
f 605//605 787//787 807//807
f 655//655 807//807 789//789
f 607//607 789//789 769//769
f 656//656 769//769 768//768
f 658//658 768//768 829//829
f 608//608 829//829 828//828
f 610//610 828//828 791//791
f 596//596 791//791 790//790
f 599//599 790//790 808//808
f 586//586 808//808 815//815
f 574//574 815//815 771//771
f 576//576 771//771 770//770
f 578//578 770//770 792//792
f 580//580 792//792 772//772
f 582//582 772//772 756//756
f 583//583 755//755 753//753
f 753//753 614//614 583//583
f 759//759 666//666 748//748
f 763//763 748//748 746//746
f 757//757 746//746 743//743
f 758//758 743//743 715//715
f 797//797 715//715 713//713
f 775//775 713//713 738//738
f 776//776 738//738 711//711
f 796//796 711//711 709//709
f 773//773 709//709 736//736
f 774//774 736//736 707//707
f 794//794 707//707 704//704
f 795//795 704//704 664//664
f 818//818 664//664 624//624
f 819//819 624//624 619//619
f 816//816 619//619 618//618
f 817//817 618//618 622//622
f 809//809 622//622 663//663
f 810//810 663//663 615//615
f 793//793 615//615 660//660
f 762//762 660//660 613//613
f 613//613 754//754 762//762
f 660//660 762//762 793//793
f 615//615 793//793 810//810
f 663//663 810//810 809//809
f 622//622 809//809 817//817
f 618//618 817//817 816//816
f 619//619 816//816 819//819
f 624//624 819//819 818//818
f 664//664 818//818 795//795
f 704//704 795//795 794//794
f 707//707 794//794 774//774
f 736//736 774//774 773//773
f 709//709 773//773 796//796
f 711//711 796//796 776//776
f 738//738 776//776 775//775
f 713//713 775//775 797//797
f 715//715 797//797 758//758
f 743//743 758//758 757//757
f 746//746 757//757 763//763
f 748//748 763//763 759//759

