# https://github.com/mikedh/trimesh
v 0.91237499 -0.01375910 1.82318886
v 0.90945842 -0.00520786 1.82318886
v 0.91237499 -0.03624090 1.82318886
v 0.91237499 -0.01375910 1.12518051
v 0.90614153 0.00445635 1.82318886
v 0.90614153 0.00445635 1.12518051
v 0.90614153 -0.05445635 1.82318886
v 0.90922970 -0.04549702 1.12518051
v 0.91237499 -0.03624090 1.12518051
v 0.89693438 0.00840735 1.82318886
v 0.88869940 0.01189463 1.12518051
v 0.88869940 -0.06189463 1.82318886
v 0.89756343 -0.05811984 1.12518051
v 0.90614153 -0.05445635 1.12518051
v 0.88869940 0.01189463 1.82318886
v 0.50628787 0.02237500 1.12518051
v 0.50628787 -0.07237500 1.82318886
v 0.88869940 -0.06189463 1.12518051
v 0.50628787 0.02237500 1.82318886
v 0.39380039 0.02237500 1.12518051
v 0.39380039 -0.07237500 1.82318886
v 0.50628787 -0.07237500 1.12518051
v 0.38184826 0.02237500 1.82318886
v 0.38070450 0.02117857 1.12518051
v 0.35182492 0.02106728 1.82318886
v 0.35680022 0.02141971 1.82318886
v 0.37046798 0.02195764 1.82318886
v 0.37046798 -0.07195764 1.82318886
v 0.39380039 -0.07237500 1.12518051
v 0.37452828 0.00874124 1.12518051
v 0.33421122 0.01055908 1.82318886
v 0.34090213 0.01765420 1.82318886
v 0.35182492 -0.07106728 1.82318886
v 0.38733824 -0.07179070 1.12518051
v 0.37235519 -0.00232344 1.12518051
v 0.32814936 -0.01375910 1.82318886
v 0.33266718 0.00537454 1.82318886
v 0.34256057 -0.06886918 1.82318886
v 0.38070450 -0.07117857 1.12518051
v 0.37018206 -0.01375910 1.12518051
v 0.32814936 -0.03624090 1.82318886
v 0.34090213 -0.06765420 1.82318886
v 0.37755921 -0.06486252 1.12518051
v 0.33266718 -0.05537454 1.82318886
v 0.37018206 -0.03624090 1.12518051
v 0.32986500 -0.04646158 1.82318886
v 0.37452828 -0.05874124 1.12518051
v 0.37229799 -0.04731485 1.12518051
f 1 2 5
f 1 5 10
f 1 10 15
f 1 15 19
f 1 19 23
f 1 23 27
f 1 27 26
f 1 26 25
f 1 25 32
f 1 32 31
f 1 31 37
f 1 37 36
f 1 36 41
f 1 41 46
f 1 46 44
f 1 44 42
f 1 42 38
f 1 38 33
f 1 33 28
f 1 28 21
f 1 21 17
f 1 17 12
f 1 12 7
f 1 7 3
f 1 3 9
f 1 9 4
f 1 4 2
f 2 4 6
f 2 6 5
f 3 7 8
f 3 8 9
f 4 9 8
f 4 8 14
f 4 14 13
f 4 13 18
f 4 18 22
f 4 22 29
f 4 29 34
f 4 34 39
f 4 39 43
f 4 43 47
f 4 47 48
f 4 48 45
f 4 45 40
f 4 40 35
f 4 35 30
f 4 30 24
f 4 24 20
f 4 20 16
f 4 16 11
f 4 11 6
f 5 6 10
f 6 11 10
f 7 12 13
f 7 13 14
f 7 14 8
f 10 11 15
f 11 16 19
f 11 19 15
f 12 17 22
f 12 22 18
f 12 18 13
f 16 20 23
f 16 23 19
f 17 21 29
f 17 29 22
f 20 24 25
f 20 25 26
f 20 26 27
f 20 27 23
f 21 28 29
f 24 30 31
f 24 31 32
f 24 32 25
f 28 33 29
f 29 33 34
f 30 35 36
f 30 36 37
f 30 37 31
f 33 38 39
f 33 39 34
f 35 40 36
f 36 40 45
f 36 45 41
f 38 42 39
f 39 42 44
f 39 44 43
f 41 45 46
f 43 44 47
f 44 46 47
f 45 48 46
f 46 48 47

