mtllib material.mtl
usemtl material_0
v -0.38050000 0.00000000 2.00000000
v 0.38050000 0.00000000 2.00000000
v -0.53250000 0.00000000 1.84800000
v -0.53203100 0.00000000 1.85993000
v -0.53062900 0.00000000 1.87178000
v -0.52830000 0.00000000 1.88348000
v -0.52506100 0.00000000 1.89497000
v -0.52093000 0.00000000 1.90617000
v -0.51593300 0.00000000 1.91701000
v -0.51010100 0.00000000 1.92742000
v -0.50347100 0.00000000 1.93734000
v -0.49608200 0.00000000 1.94672000
v -0.48798000 0.00000000 1.95548000
v -0.47921600 0.00000000 1.96358000
v -0.46984300 0.00000000 1.97097000
v -0.45992000 0.00000000 1.97760000
v -0.44950700 0.00000000 1.98343000
v -0.43866800 0.00000000 1.98843000
v -0.42747100 0.00000000 1.99256000
v -0.41598400 0.00000000 1.99580000
v -0.40427800 0.00000000 1.99813000
v -0.39242600 0.00000000 1.99953000
v -0.53250000 0.00000000 0.40200000
v -0.38050000 0.00000000 0.25000000
v -0.39242600 0.00000000 0.25046900
v -0.40427800 0.00000000 0.25187100
v -0.41598400 0.00000000 0.25420000
v -0.42747100 0.00000000 0.25743900
v -0.43866800 0.00000000 0.26157000
v -0.44950700 0.00000000 0.26656700
v -0.45992000 0.00000000 0.27239900
v -0.46984300 0.00000000 0.27902900
v -0.47921600 0.00000000 0.28641800
v -0.48798000 0.00000000 0.29452000
v -0.49608200 0.00000000 0.30328400
v -0.50347100 0.00000000 0.31265700
v -0.51010100 0.00000000 0.32258000
v -0.51593300 0.00000000 0.33299300
v -0.52093000 0.00000000 0.34383200
v -0.52506100 0.00000000 0.35502900
v -0.52830000 0.00000000 0.36651600
v -0.53062900 0.00000000 0.37822200
v -0.53203100 0.00000000 0.39007400
v 0.38050000 0.00000000 0.25000000
v 0.53250000 0.00000000 0.40200000
v 0.53203100 0.00000000 0.39007400
v 0.53062900 0.00000000 0.37822200
v 0.52830000 0.00000000 0.36651600
v 0.52506100 0.00000000 0.35502900
v 0.52093000 0.00000000 0.34383200
v 0.51593300 0.00000000 0.33299300
v 0.51010100 0.00000000 0.32258000
v 0.50347100 0.00000000 0.31265700
v 0.49608200 0.00000000 0.30328400
v 0.48798000 0.00000000 0.29452000
v 0.47921600 0.00000000 0.28641800
v 0.46984300 0.00000000 0.27902900
v 0.45992000 0.00000000 0.27239900
v 0.44950700 0.00000000 0.26656700
v 0.43866800 0.00000000 0.26157000
v 0.42747100 0.00000000 0.25743900
v 0.41598400 0.00000000 0.25420000
v 0.40427800 0.00000000 0.25187100
v 0.39242600 0.00000000 0.25046900
v 0.53250000 0.00000000 1.84800000
v 0.39242600 0.00000000 1.99953000
v 0.40427800 0.00000000 1.99813000
v 0.41598400 0.00000000 1.99580000
v 0.42747100 0.00000000 1.99256000
v 0.43866800 0.00000000 1.98843000
v 0.44950700 0.00000000 1.98343000
v 0.45992000 0.00000000 1.97760000
v 0.46984300 0.00000000 1.97097000
v 0.47921600 0.00000000 1.96358000
v 0.48798000 0.00000000 1.95548000
v 0.49608200 0.00000000 1.94672000
v 0.50347100 0.00000000 1.93734000
v 0.51010100 0.00000000 1.92742000
v 0.51593300 0.00000000 1.91701000
v 0.52093000 0.00000000 1.90617000
v 0.52506100 0.00000000 1.89497000
v 0.52830000 0.00000000 1.88348000
v 0.53062900 0.00000000 1.87178000
v 0.53203100 0.00000000 1.85993000
v -0.90000000 0.00000000 2.25000000
v -0.90000000 0.00000000 2.25000000
v -0.90000000 0.00000000 2.25000000
v 0.90000000 0.00000000 2.25000000
v 0.90000000 0.00000000 2.25000000
v 0.90000000 0.00000000 2.25000000
v 0.90000000 0.00000000 0.00000000
v 0.90000000 0.00000000 0.00000000
v 0.90000000 0.00000000 0.00000000
v -0.90000000 0.00000000 -0.00000000
v -0.90000000 0.00000000 -0.00000000
v -0.90000000 0.00000000 -0.00000000
v -0.90000000 -0.05000000 -0.00000000
v -0.90000000 -0.05000000 -0.00000000
v -0.90000000 -0.05000000 -0.00000000
v 0.90000000 -0.05000000 0.00000000
v 0.90000000 -0.05000000 0.00000000
v 0.90000000 -0.05000000 0.00000000
v 0.90000000 -0.05000000 2.25000000
v 0.90000000 -0.05000000 2.25000000
v 0.90000000 -0.05000000 2.25000000
v -0.90000000 -0.05000000 2.25000000
v -0.90000000 -0.05000000 2.25000000
v -0.90000000 -0.05000000 2.25000000
v -0.38050000 -0.05000000 2.00000000
v -0.53250000 -0.05000000 0.40200000
v 0.53250000 -0.05000000 1.84800000
v 0.53250000 -0.05000000 0.40200000
v 0.40427800 -0.05000000 1.99813000
v 0.41598400 -0.05000000 1.99580000
v 0.38050000 -0.05000000 2.00000000
v -0.53203100 -0.05000000 0.39007400
v 0.53203100 -0.05000000 1.85993000
v 0.39242600 -0.05000000 1.99953000
v -0.39242600 -0.05000000 1.99953000
v -0.53250000 -0.05000000 1.84800000
v -0.53203100 -0.05000000 1.85993000
v 0.47921600 -0.05000000 0.28641800
v 0.46984300 -0.05000000 0.27902900
v 0.52830000 -0.05000000 0.36651600
v 0.52506100 -0.05000000 0.35502900
v 0.53203100 -0.05000000 0.39007400
v 0.46984300 -0.05000000 1.97097000
v 0.47921600 -0.05000000 1.96358000
v 0.43866800 -0.05000000 1.98843000
v 0.44950700 -0.05000000 1.98343000
v -0.40427800 -0.05000000 1.99813000
v -0.42747100 -0.05000000 1.99256000
v -0.41598400 -0.05000000 1.99580000
v -0.53062900 -0.05000000 0.37822200
v -0.52506100 -0.05000000 0.35502900
v -0.52830000 -0.05000000 0.36651600
v -0.49608200 -0.05000000 0.30328400
v -0.50347100 -0.05000000 0.31265700
v 0.41598400 -0.05000000 0.25420000
v 0.40427800 -0.05000000 0.25187100
v 0.43866800 -0.05000000 0.26157000
v 0.42747100 -0.05000000 0.25743900
v 0.45992000 -0.05000000 0.27239900
v 0.51010100 -0.05000000 0.32258000
v 0.50347100 -0.05000000 0.31265700
v 0.53062900 -0.05000000 0.37822200
v 0.53062900 -0.05000000 1.87178000
v 0.48798000 -0.05000000 1.95548000
v 0.49608200 -0.05000000 1.94672000
v 0.45992000 -0.05000000 1.97760000
v 0.42747100 -0.05000000 1.99256000
v -0.45992000 -0.05000000 1.97760000
v -0.44950700 -0.05000000 1.98343000
v -0.53062900 -0.05000000 1.87178000
v -0.52830000 -0.05000000 1.88348000
v -0.51010100 -0.05000000 0.32258000
v -0.51593300 -0.05000000 0.33299300
v -0.48798000 -0.05000000 0.29452000
v -0.45992000 -0.05000000 0.27239900
v -0.46984300 -0.05000000 0.27902900
v 0.44950700 -0.05000000 0.26656700
v 0.51593300 -0.05000000 0.33299300
v 0.52506100 -0.05000000 1.89497000
v 0.52830000 -0.05000000 1.88348000
v -0.43866800 -0.05000000 1.98843000
v -0.52093000 -0.05000000 0.34383200
v -0.47921600 -0.05000000 0.28641800
v -0.44950700 -0.05000000 0.26656700
v 0.52093000 -0.05000000 0.34383200
v 0.51593300 -0.05000000 1.91701000
v 0.52093000 -0.05000000 1.90617000
v 0.50347100 -0.05000000 1.93734000
v 0.51010100 -0.05000000 1.92742000
v -0.46984300 -0.05000000 1.97097000
v -0.48798000 -0.05000000 1.95548000
v -0.47921600 -0.05000000 1.96358000
v -0.50347100 -0.05000000 1.93734000
v -0.49608200 -0.05000000 1.94672000
v -0.41598400 -0.05000000 0.25420000
v -0.42747100 -0.05000000 0.25743900
v 0.39242600 -0.05000000 0.25046900
v 0.49608200 -0.05000000 0.30328400
v 0.48798000 -0.05000000 0.29452000
v -0.43866800 -0.05000000 0.26157000
v 0.38050000 -0.05000000 0.25000000
v -0.51593300 -0.05000000 1.91701000
v -0.51010100 -0.05000000 1.92742000
v -0.52506100 -0.05000000 1.89497000
v -0.52093000 -0.05000000 1.90617000
v -0.39242600 -0.05000000 0.25046900
v -0.40427800 -0.05000000 0.25187100
v -0.38050000 -0.05000000 0.25000000
vn 0.00000000 1.00000000 0.00000000
vn 0.00000000 1.00000000 0.00000000
vn 0.00000000 1.00000000 0.00000000
vn 0.00000000 1.00000000 0.00000000
vn 0.00000000 1.00000000 0.00000000
vn 0.00000000 1.00000000 0.00000000
vn 0.00000000 1.00000000 0.00000000
vn 0.00000000 1.00000000 0.00000000
vn 0.00000000 1.00000000 0.00000000
vn 0.00000000 1.00000000 0.00000000
vn 0.00000000 1.00000000 0.00000000
vn 0.00000000 1.00000000 0.00000000
vn 0.00000000 1.00000000 0.00000000
vn 0.00000000 1.00000000 0.00000000
vn 0.00000000 1.00000000 0.00000000
vn 0.00000000 1.00000000 0.00000000
vn 0.00000000 1.00000000 0.00000000
vn 0.00000000 1.00000000 0.00000000
vn 0.00000000 1.00000000 0.00000000
vn 0.00000000 1.00000000 0.00000000
vn 0.00000000 1.00000000 0.00000000
vn 0.00000000 1.00000000 0.00000000
vn 0.00000000 1.00000000 0.00000000
vn 0.00000000 1.00000000 0.00000000
vn 0.00000000 1.00000000 0.00000000
vn 0.00000000 1.00000000 0.00000000
vn 0.00000000 1.00000000 0.00000000
vn 0.00000000 1.00000000 0.00000000
vn 0.00000000 1.00000000 0.00000000
vn 0.00000000 1.00000000 0.00000000
vn 0.00000000 1.00000000 0.00000000
vn 0.00000000 1.00000000 0.00000000
vn 0.00000000 1.00000000 0.00000000
vn 0.00000000 1.00000000 0.00000000
vn 0.00000000 1.00000000 0.00000000
vn 0.00000000 1.00000000 0.00000000
vn 0.00000000 1.00000000 0.00000000
vn 0.00000000 1.00000000 0.00000000
vn 0.00000000 1.00000000 0.00000000
vn 0.00000000 1.00000000 0.00000000
vn 0.00000000 1.00000000 0.00000000
vn 0.00000000 1.00000000 0.00000000
vn 0.00000000 1.00000000 0.00000000
vn 0.00000000 1.00000000 0.00000000
vn 0.00000000 1.00000000 0.00000000
vn 0.00000000 1.00000000 0.00000000
vn 0.00000000 1.00000000 0.00000000
vn 0.00000000 1.00000000 0.00000000
vn 0.00000000 1.00000000 0.00000000
vn 0.00000000 1.00000000 0.00000000
vn 0.00000000 1.00000000 0.00000000
vn 0.00000000 1.00000000 0.00000000
vn 0.00000000 1.00000000 0.00000000
vn 0.00000000 1.00000000 0.00000000
vn 0.00000000 1.00000000 0.00000000
vn 0.00000000 1.00000000 0.00000000
vn 0.00000000 1.00000000 0.00000000
vn 0.00000000 1.00000000 0.00000000
vn 0.00000000 1.00000000 0.00000000
vn 0.00000000 1.00000000 0.00000000
vn 0.00000000 1.00000000 0.00000000
vn 0.00000000 1.00000000 0.00000000
vn 0.00000000 1.00000000 0.00000000
vn 0.00000000 1.00000000 0.00000000
vn 0.00000000 1.00000000 0.00000000
vn 0.00000000 1.00000000 0.00000000
vn 0.00000000 1.00000000 0.00000000
vn 0.00000000 1.00000000 0.00000000
vn 0.00000000 1.00000000 0.00000000
vn 0.00000000 1.00000000 0.00000000
vn 0.00000000 1.00000000 0.00000000
vn 0.00000000 1.00000000 0.00000000
vn 0.00000000 1.00000000 0.00000000
vn 0.00000000 1.00000000 0.00000000
vn 0.00000000 1.00000000 0.00000000
vn 0.00000000 1.00000000 0.00000000
vn 0.00000000 1.00000000 0.00000000
vn 0.00000000 1.00000000 0.00000000
vn 0.00000000 1.00000000 0.00000000
vn 0.00000000 1.00000000 0.00000000
vn 0.00000000 1.00000000 0.00000000
vn 0.00000000 1.00000000 0.00000000
vn 0.00000000 1.00000000 0.00000000
vn 0.00000000 1.00000000 0.00000000
vn -1.00000000 0.00000000 -0.00000000
vn 0.00000000 0.00000000 1.00000000
vn 0.00000000 1.00000000 0.00000000
vn 0.00000000 0.00000000 1.00000000
vn 1.00000000 0.00000000 0.00000000
vn 0.00000000 1.00000000 0.00000000
vn 0.00000000 1.00000000 0.00000000
vn 0.00000000 0.00000000 -1.00000000
vn 1.00000000 0.00000000 0.00000000
vn 0.00000000 0.00000000 -1.00000000
vn -1.00000000 0.00000000 -0.00000000
vn 0.00000000 1.00000000 0.00000000
vn 0.00000000 -1.00000000 0.00000000
vn 0.00000000 0.00000000 -1.00000000
vn -1.00000000 0.00000000 -0.00000000
vn 0.00000000 -1.00000000 0.00000000
vn 1.00000000 0.00000000 0.00000000
vn 0.00000000 0.00000000 -1.00000000
vn 0.00000000 -1.00000000 0.00000000
vn 1.00000000 0.00000000 0.00000000
vn 0.00000000 0.00000000 1.00000000
vn 0.00000000 0.00000000 1.00000000
vn -1.00000000 0.00000000 -0.00000000
vn 0.00000000 -1.00000000 0.00000000
vn 0.00000000 -1.00000000 0.00000000
vn 0.00000000 -1.00000000 0.00000000
vn 0.00000000 -1.00000000 0.00000000
vn 0.00000000 -1.00000000 0.00000000
vn 0.00000000 -1.00000000 0.00000000
vn 0.00000000 -1.00000000 0.00000000
vn 0.00000000 -1.00000000 0.00000000
vn 0.00000000 -1.00000000 0.00000000
vn 0.00000000 -1.00000000 0.00000000
vn 0.00000000 -1.00000000 0.00000000
vn 0.00000000 -1.00000000 0.00000000
vn 0.00000000 -1.00000000 0.00000000
vn 0.00000000 -1.00000000 0.00000000
vn 0.00000000 -1.00000000 0.00000000
vn 0.00000000 -1.00000000 0.00000000
vn 0.00000000 -1.00000000 0.00000000
vn 0.00000000 -1.00000000 0.00000000
vn 0.00000000 -1.00000000 0.00000000
vn 0.00000000 -1.00000000 0.00000000
vn 0.00000000 -1.00000000 0.00000000
vn 0.00000000 -1.00000000 0.00000000
vn 0.00000000 -1.00000000 0.00000000
vn 0.00000000 -1.00000000 0.00000000
vn 0.00000000 -1.00000000 0.00000000
vn 0.00000000 -1.00000000 0.00000000
vn 0.00000000 -1.00000000 0.00000000
vn 0.00000000 -1.00000000 0.00000000
vn 0.00000000 -1.00000000 0.00000000
vn 0.00000000 -1.00000000 0.00000000
vn 0.00000000 -1.00000000 0.00000000
vn 0.00000000 -1.00000000 0.00000000
vn 0.00000000 -1.00000000 0.00000000
vn 0.00000000 -1.00000000 0.00000000
vn 0.00000000 -1.00000000 0.00000000
vn 0.00000000 -1.00000000 0.00000000
vn 0.00000000 -1.00000000 0.00000000
vn 0.00000000 -1.00000000 0.00000000
vn 0.00000000 -1.00000000 0.00000000
vn 0.00000000 -1.00000000 0.00000000
vn 0.00000000 -1.00000000 0.00000000
vn 0.00000000 -1.00000000 0.00000000
vn 0.00000000 -1.00000000 0.00000000
vn 0.00000000 -1.00000000 0.00000000
vn 0.00000000 -1.00000000 0.00000000
vn 0.00000000 -1.00000000 0.00000000
vn 0.00000000 -1.00000000 0.00000000
vn 0.00000000 -1.00000000 0.00000000
vn 0.00000000 -1.00000000 0.00000000
vn 0.00000000 -1.00000000 0.00000000
vn 0.00000000 -1.00000000 0.00000000
vn 0.00000000 -1.00000000 0.00000000
vn 0.00000000 -1.00000000 0.00000000
vn 0.00000000 -1.00000000 0.00000000
vn 0.00000000 -1.00000000 0.00000000
vn 0.00000000 -1.00000000 0.00000000
vn 0.00000000 -1.00000000 0.00000000
vn 0.00000000 -1.00000000 0.00000000
vn 0.00000000 -1.00000000 0.00000000
vn 0.00000000 -1.00000000 0.00000000
vn 0.00000000 -1.00000000 0.00000000
vn 0.00000000 -1.00000000 0.00000000
vn 0.00000000 -1.00000000 0.00000000
vn 0.00000000 -1.00000000 0.00000000
vn 0.00000000 -1.00000000 0.00000000
vn 0.00000000 -1.00000000 0.00000000
vn 0.00000000 -1.00000000 0.00000000
vn 0.00000000 -1.00000000 0.00000000
vn 0.00000000 -1.00000000 0.00000000
vn 0.00000000 -1.00000000 0.00000000
vn 0.00000000 -1.00000000 0.00000000
vn 0.00000000 -1.00000000 0.00000000
vn 0.00000000 -1.00000000 0.00000000
vn 0.00000000 -1.00000000 0.00000000
vn 0.00000000 -1.00000000 0.00000000
vn 0.00000000 -1.00000000 0.00000000
vn 0.00000000 -1.00000000 0.00000000
vn 0.00000000 -1.00000000 0.00000000
vn 0.00000000 -1.00000000 0.00000000
vn 0.00000000 -1.00000000 0.00000000
vn 0.00000000 -1.00000000 0.00000000
vn 0.00000000 -1.00000000 0.00000000
vn 0.00000000 -1.00000000 0.00000000
vn 0.00000000 -1.00000000 0.00000000
vn 0.00000000 -1.00000000 0.00000000
f 87//87 3//3 23//23
f 90//90 91//91 45//45
f 23//23 96//96 87//87
f 45//45 65//65 90//90
f 87//87 4//4 3//3
f 91//91 46//46 45//45
f 91//91 58//58 57//57
f 23//23 43//43 96//96
f 91//91 47//47 46//46
f 91//91 50//50 49//49
f 91//91 59//59 58//58
f 91//91 62//62 61//61
f 91//91 64//64 63//63
f 96//96 37//37 36//36
f 96//96 42//42 41//41
f 87//87 5//5 4//4
f 65//65 84//84 90//90
f 49//49 48//48 91//91
f 91//91 54//54 53//53
f 91//91 60//60 59//59
f 63//63 62//62 91//91
f 96//96 24//24 44//44
f 96//96 33//33 32//32
f 36//36 35//35 96//96
f 96//96 39//39 38//38
f 43//43 42//42 96//96
f 87//87 7//7 6//6
f 90//90 83//83 82//82
f 48//48 47//47 91//91
f 53//53 52//52 91//91
f 91//91 56//56 55//55
f 61//61 60//60 91//91
f 44//44 91//91 96//96
f 32//32 31//31 96//96
f 35//35 34//34 96//96
f 96//96 40//40 39//39
f 6//6 5//5 87//87
f 90//90 69//69 68//68
f 90//90 79//79 78//78
f 90//90 81//81 80//80
f 84//84 83//83 90//90
f 52//52 51//51 91//91
f 57//57 56//56 91//91
f 96//96 25//25 24//24
f 96//96 29//29 28//28
f 34//34 33//33 96//96
f 41//41 40//40 96//96
f 87//87 18//18 17//17
f 68//68 67//67 90//90
f 90//90 72//72 71//71
f 90//90 75//75 74//74
f 80//80 79//79 90//90
f 51//51 50//50 91//91
f 44//44 64//64 91//91
f 96//96 27//27 26//26
f 96//96 30//30 29//29
f 38//38 37//37 96//96
f 87//87 13//13 12//12
f 87//87 15//15 14//14
f 87//87 19//19 18//18
f 87//87 21//21 20//20
f 87//87 90//90 2//2
f 67//67 66//66 90//90
f 71//71 70//70 90//90
f 74//74 73//73 90//90
f 90//90 77//77 76//76
f 82//82 81//81 90//90
f 26//26 25//25 96//96
f 31//31 30//30 96//96
f 87//87 9//9 8//8
f 14//14 13//13 87//87
f 17//17 16//16 87//87
f 87//87 22//22 21//21
f 2//2 1//1 87//87
f 70//70 69//69 90//90
f 76//76 75//75 90//90
f 55//55 54//54 91//91
f 8//8 7//7 87//87
f 16//16 15//15 87//87
f 1//1 22//22 87//87
f 73//73 72//72 90//90
f 28//28 27//27 96//96
f 87//87 11//11 10//10
f 20//20 19//19 87//87
f 78//78 77//77 90//90
f 12//12 11//11 87//87
f 10//10 9//9 87//87
f 66//66 2//2 90//90
f 98//98 94//94 92//92
f 92//92 102//102 98//98
f 101//101 93//93 89//89
f 89//89 104//104 101//101
f 105//105 88//88 86//86
f 86//86 106//106 105//105
f 107//107 85//85 95//95
f 95//95 99//99 107//107
f 103//103 108//108 109//109
f 108//108 97//97 110//110
f 103//103 111//111 112//112
f 103//103 113//113 114//114
f 109//109 115//115 103//103
f 97//97 116//116 110//110
f 103//103 117//117 111//111
f 103//103 118//118 113//113
f 108//108 119//119 109//109
f 110//110 120//120 108//108
f 112//112 100//100 103//103
f 115//115 118//118 103//103
f 120//120 121//121 108//108
f 100//100 122//122 123//123
f 100//100 124//124 125//125
f 112//112 126//126 100//100
f 103//103 127//127 128//128
f 103//103 129//129 130//130
f 108//108 131//131 119//119
f 108//108 132//132 133//133
f 97//97 134//134 116//116
f 97//97 135//135 136//136
f 97//97 137//137 138//138
f 100//100 139//139 140//140
f 100//100 141//141 142//142
f 123//123 143//143 100//100
f 100//100 144//144 145//145
f 100//100 146//146 124//124
f 103//103 147//147 117//117
f 103//103 148//148 149//149
f 103//103 150//150 127//127
f 103//103 151//151 129//129
f 133//133 131//131 108//108
f 108//108 152//152 153//153
f 108//108 154//154 155//155
f 136//136 134//134 97//97
f 97//97 156//156 157//157
f 97//97 158//158 137//137
f 97//97 159//159 160//160
f 142//142 139//139 100//100
f 143//143 161//161 100//100
f 100//100 162//162 144//144
f 126//126 146//146 100//100
f 103//103 163//163 164//164
f 128//128 148//148 103//103
f 114//114 151//151 103//103
f 153//153 165//165 108//108
f 121//121 154//154 108//108
f 157//157 166//166 97//97
f 97//97 167//167 158//158
f 97//97 168//168 159//159
f 161//161 141//141 100//100
f 100//100 169//169 162//162
f 164//164 147//147 103//103
f 103//103 170//170 171//171
f 103//103 172//172 173//173
f 130//130 150//150 103//103
f 108//108 174//174 152//152
f 108//108 175//175 176//176
f 108//108 177//177 178//178
f 166//166 135//135 97//97
f 160//160 167//167 97//97
f 97//97 179//179 180//180
f 140//140 181//181 100//100
f 100//100 182//182 183//183
f 125//125 169//169 100//100
f 173//173 170//170 103//103
f 165//165 132//132 108//108
f 178//178 175//175 108//108
f 138//138 156//156 97//97
f 180//180 184//184 97//97
f 97//97 100//100 185//185
f 183//183 122//122 100//100
f 171//171 163//163 103//103
f 176//176 174//174 108//108
f 108//108 186//186 187//187
f 108//108 188//188 189//189
f 184//184 168//168 97//97
f 97//97 190//190 191//191
f 185//185 192//192 97//97
f 145//145 182//182 100//100
f 187//187 177//177 108//108
f 155//155 188//188 108//108
f 192//192 190//190 97//97
f 149//149 172//172 103//103
f 191//191 179//179 97//97
f 189//189 186//186 108//108
f 181//181 185//185 100//100

