# https://github.com/mikedh/trimesh
v -0.30261815 -0.01375910 0.41576701
v -0.30261815 -0.03624090 0.41576701
v -0.30261815 -0.01261832 0.41561479
v -0.37007102 -0.01375910 0.50610521
v -0.30261815 -0.05874124 0.41175764
v -0.37007102 -0.03624090 0.50610521
v -0.30261815 0.00874124 0.41175764
v -0.37009767 -0.01361071 0.50610521
v -0.30261815 -0.07094671 0.40642869
v -0.37446491 -0.05874124 0.50610521
v -0.30261815 0.00934410 0.41155466
v -0.37446491 0.00874124 0.50610521
v -0.30261815 -0.07213386 0.39374077
v -0.38066963 -0.07117857 0.50610521
v -0.30261815 0.02094671 0.40642869
v -0.38066963 0.02117857 0.50610521
v -0.39377142 -0.07237500 0.50610521
v -0.30261815 -0.07237500 0.37120693
v -0.30261815 0.02213386 0.39374077
v -0.39377142 0.02237500 0.50610521
v -0.50622839 -0.07237500 0.50610521
v -0.30261815 -0.07237500 0.28122405
v -0.30261815 0.02216169 0.39257348
v -0.50622839 0.02237500 0.50610521
v -0.30261815 0.02237500 0.37120693
v -0.52854404 -0.07117857 0.50610521
v -0.50622839 -0.07237500 0.34872392
v -0.43874888 -0.07237500 0.28122405
v -0.30261815 -0.07223588 0.25985757
v -0.52859728 0.02117857 0.50610521
v -0.50622839 0.02237500 0.34872392
v -0.30261815 0.02237500 0.28122405
v -0.53970186 -0.06998214 0.50610521
v -0.52854404 -0.07117857 0.43870680
v -0.48372634 -0.07189272 0.30370706
v -0.52851742 -0.07117857 0.41622379
v -0.52726580 -0.07117857 0.39374077
v -0.52100784 -0.07117857 0.34872392
v -0.57466657 -0.06236764 0.03375835
v -0.57466657 -0.06234909 0.03284479
v -0.57466657 -0.06189463 0.01127534
v -0.39377142 -0.07206894 0.25874104
v -0.37126936 -0.07221734 0.25874104
v -0.34876730 -0.07222661 0.25874104
v -0.30261815 -0.07222661 0.25874104
v -0.52854404 0.02117857 0.43870680
v -0.53978176 0.01997287 0.41622379
v -0.53978176 0.01997287 0.50610521
v -0.52100784 0.02117857 0.34872392
v -0.52726580 0.02117857 0.39374077
v -0.52851742 0.02117857 0.41622379
v -0.43874888 0.02237500 0.28122405
v -0.48372634 0.02189272 0.30370706
v -0.57466657 0.01189463 0.01127534
v -0.57466657 0.01236764 0.03375835
v -0.30261815 0.02222661 0.25874104
v -0.57466657 -0.06240474 0.50610521
v -0.53978176 -0.06997287 0.48372366
v -0.53978176 -0.06997287 0.41622379
v -0.57466657 -0.06240474 0.41531029
v -0.57466657 -0.05445635 -0.00618330
v -0.30261815 -0.06189463 0.01127534
v -0.57466657 0.01240474 0.41622379
v -0.57466657 0.01240474 0.50610521
v -0.34876730 0.02222661 0.25874104
v -0.37126936 0.02221734 0.25874104
v -0.39377142 0.02206894 0.25874104
v -0.30261815 0.01189463 0.01127534
v -0.57466657 0.00476241 -0.00547278
v -0.57466657 -0.05371437 -0.00643703
v -0.30261815 -0.05445635 -0.00618330
v -0.30261815 0.00445635 -0.00618330
v -0.57466657 0.00445635 -0.00618330
v -0.57466657 -0.03624090 -0.01237504
v -0.30261815 -0.03624090 -0.01237504
v -0.30261815 -0.01375910 -0.01237504
v -0.57466657 -0.01375910 -0.01237504
f 1 2 5
f 1 5 9
f 1 9 13
f 1 13 18
f 1 18 22
f 1 22 29
f 1 29 45
f 1 45 62
f 1 62 71
f 1 71 75
f 1 75 76
f 1 76 72
f 1 72 68
f 1 68 56
f 1 56 32
f 1 32 25
f 1 25 23
f 1 23 19
f 1 19 15
f 1 15 11
f 1 11 7
f 1 7 3
f 1 3 4
f 1 4 6
f 1 6 2
f 2 6 5
f 3 7 4
f 4 8 12
f 4 12 16
f 4 16 20
f 4 20 24
f 4 24 30
f 4 30 48
f 4 48 64
f 4 64 57
f 4 57 33
f 4 33 26
f 4 26 21
f 4 21 17
f 4 17 14
f 4 14 10
f 4 10 6
f 4 7 8
f 5 6 10
f 5 10 9
f 7 11 12
f 7 12 8
f 9 10 14
f 9 14 13
f 11 15 12
f 12 15 16
f 13 14 17
f 13 17 18
f 15 19 16
f 16 19 20
f 17 21 27
f 17 27 28
f 17 28 22
f 17 22 18
f 19 23 20
f 20 23 25
f 20 25 32
f 20 32 52
f 20 52 31
f 20 31 24
f 21 26 34
f 21 34 27
f 22 28 29
f 24 31 30
f 26 33 34
f 27 35 28
f 27 34 36
f 27 36 37
f 27 37 38
f 27 38 39
f 27 39 40
f 27 40 41
f 27 41 35
f 28 42 43
f 28 43 44
f 28 44 29
f 28 35 41
f 28 41 42
f 29 44 45
f 30 46 47
f 30 47 48
f 30 31 46
f 31 49 50
f 31 50 51
f 31 51 46
f 31 52 53
f 31 53 54
f 31 54 55
f 31 55 49
f 32 56 65
f 32 65 52
f 33 57 58
f 33 58 59
f 33 59 34
f 34 59 36
f 36 59 37
f 37 59 39
f 37 39 38
f 39 59 60
f 39 60 57
f 39 57 64
f 39 64 63
f 39 63 55
f 39 55 54
f 39 54 69
f 39 69 73
f 39 73 77
f 39 77 74
f 39 74 70
f 39 70 61
f 39 61 41
f 39 41 40
f 41 61 71
f 41 71 62
f 41 62 45
f 41 45 44
f 41 44 43
f 41 43 42
f 46 51 47
f 47 63 64
f 47 64 48
f 47 51 50
f 47 50 55
f 47 55 63
f 49 55 50
f 52 65 66
f 52 66 67
f 52 67 54
f 52 54 53
f 54 68 69
f 54 67 66
f 54 66 65
f 54 65 56
f 54 56 68
f 57 60 59
f 57 59 58
f 61 70 71
f 68 72 69
f 69 72 73
f 70 74 75
f 70 75 71
f 72 76 77
f 72 77 73
f 74 77 76
f 74 76 75

