# https://github.com/mikedh/trimesh
v 0.32806984 -0.03624090 1.82323185
v 0.32806984 -0.01375910 1.82323185
v 0.32973488 -0.04646158 1.82323185
v -0.30261819 -0.03624090 1.83423728
v 0.33258919 0.00537454 1.82323185
v -0.30261819 -0.01375910 1.83423728
v 0.33258919 -0.05537454 1.82323185
v -0.30261819 -0.03738168 1.83440921
v 0.34079541 -0.06765420 1.82323185
v 0.34246042 -0.06886918 1.82323185
v 0.35173701 -0.07106728 1.82323185
v 0.33413532 0.01055908 1.82323185
v -0.30261819 0.00874124 1.83823532
v 0.35173701 0.02106728 1.82323185
v 0.34079541 0.01765420 1.82323185
v -0.30261819 -0.05874124 1.83823532
v 0.37040908 -0.07195764 1.82323185
v -0.30261819 -0.07094671 1.84356607
v -0.30261819 -0.05934410 1.83840732
v -0.30261819 0.02094671 1.84356607
v 0.35673209 0.02141971 1.82323185
v 0.39371945 -0.07237500 1.82323185
v -0.30261819 -0.07213386 1.85629115
v -0.30261819 0.02213386 1.85629115
v 0.38170748 0.02237500 1.82323185
v 0.37040908 0.02195764 1.82323185
v 0.50622762 -0.07237500 1.82323185
v -0.30261819 -0.07237500 1.87877496
v -0.30261819 -0.07216169 1.85740889
v -0.30261819 0.02237500 1.87877496
v 0.50622762 0.02237500 1.82323185
v 0.50622762 -0.07237500 1.90125871
v 0.88870785 -0.06189463 1.82323185
v -0.30261819 -0.07237500 1.96875308
v -0.30261819 0.02237500 1.96875308
v 0.50622762 0.02237500 1.90125871
v 0.88870785 0.01189463 1.82323185
v 0.48374977 -0.07237500 1.92378552
v 0.88870785 -0.06189463 2.21624668
v 0.86623000 -0.06236764 2.21624668
v 0.89798440 -0.05794362 1.82323185
v -0.30261819 -0.07222661 1.99127989
v 0.43867515 -0.07237500 1.96875308
v -0.30261819 0.02223588 1.99011916
v 0.43867515 0.02237500 1.96875308
v 0.48374977 0.02237500 1.92378552
v 0.86623000 0.01236764 2.21624668
v 0.88870785 0.01189463 2.21624668
v 0.89691406 0.00840735 1.82323185
v 0.88870785 -0.06165349 2.23873050
v 0.90607166 -0.05445635 2.23873050
v 0.90607166 -0.05445635 1.82323185
v -0.30261819 -0.06189463 2.23873050
v 0.34864483 -0.07222661 1.99127989
v 0.86623000 -0.06189463 2.23873050
v 0.39371945 -0.07206894 1.99127989
v 0.37124160 -0.07221734 1.99127989
v -0.30261819 0.02222661 1.99127989
v 0.34864483 0.02222661 1.99127989
v 0.37124160 0.02221734 1.99127989
v 0.39371945 0.02206894 1.99127989
v 0.86623000 0.01189463 2.23873050
v 0.88870785 0.01165349 2.23873050
v 0.90607166 0.00445635 2.23873050
v 0.90607166 0.00445635 1.82323185
v 0.90404995 -0.05213768 2.25412095
v 0.88870785 -0.05445635 2.25618437
v 0.90904503 -0.04590510 1.82323185
v 0.91237499 -0.03624090 2.23873050
v -0.30261819 -0.05445635 2.25618437
v -0.30261819 0.01189463 2.23873050
v 0.88870785 0.00445635 2.25618437
v 0.90404995 0.00213768 2.25412095
v 0.91237499 -0.01375910 2.23873050
v 0.91237499 -0.01375910 1.82323185
v 0.88870785 -0.03624090 2.26237504
v 0.90607166 -0.03624090 2.25618437
v 0.91237499 -0.03624090 1.82323185
v -0.30261819 -0.03624090 2.26237504
v -0.30261819 0.00445635 2.25618437
v 0.88870785 -0.01375910 2.26237504
v 0.90607166 -0.01375910 2.25618437
v -0.30261819 -0.01375910 2.26237504
f 1 2 5
f 1 5 12
f 1 12 15
f 1 15 14
f 1 14 21
f 1 21 26
f 1 26 25
f 1 25 31
f 1 31 37
f 1 37 49
f 1 49 65
f 1 65 75
f 1 75 78
f 1 78 68
f 1 68 52
f 1 52 41
f 1 41 33
f 1 33 27
f 1 27 22
f 1 22 17
f 1 17 11
f 1 11 10
f 1 10 9
f 1 9 7
f 1 7 3
f 1 3 4
f 1 4 6
f 1 6 2
f 2 6 5
f 3 7 4
f 4 8 16
f 4 16 19
f 4 19 18
f 4 18 23
f 4 23 29
f 4 29 28
f 4 28 34
f 4 34 42
f 4 42 53
f 4 53 70
f 4 70 79
f 4 79 83
f 4 83 80
f 4 80 71
f 4 71 58
f 4 58 44
f 4 44 35
f 4 35 30
f 4 30 24
f 4 24 20
f 4 20 13
f 4 13 6
f 4 7 9
f 4 9 10
f 4 10 11
f 4 11 8
f 5 6 12
f 6 13 14
f 6 14 15
f 6 15 12
f 8 11 16
f 11 17 18
f 11 18 19
f 11 19 16
f 13 20 14
f 14 20 21
f 17 22 18
f 18 22 23
f 20 24 25
f 20 25 26
f 20 26 21
f 22 27 32
f 22 32 38
f 22 38 43
f 22 43 34
f 22 34 28
f 22 28 29
f 22 29 23
f 24 30 25
f 25 30 35
f 25 35 45
f 25 45 46
f 25 46 36
f 25 36 31
f 27 33 39
f 27 39 32
f 31 36 48
f 31 48 37
f 32 39 40
f 32 40 38
f 33 41 39
f 34 43 54
f 34 54 42
f 35 44 45
f 36 46 47
f 36 47 48
f 37 48 49
f 38 40 43
f 39 50 40
f 39 41 51
f 39 51 50
f 40 50 43
f 41 52 51
f 42 54 55
f 42 55 53
f 43 50 55
f 43 55 56
f 43 56 57
f 43 57 54
f 44 58 59
f 44 59 45
f 45 59 60
f 45 60 61
f 45 61 62
f 45 62 63
f 45 63 47
f 45 47 46
f 47 63 48
f 48 63 64
f 48 64 49
f 49 64 65
f 50 51 66
f 50 66 67
f 50 67 55
f 51 52 68
f 51 68 69
f 51 69 66
f 53 55 67
f 53 67 70
f 54 57 55
f 55 57 56
f 58 71 62
f 58 62 59
f 59 62 60
f 60 62 61
f 62 72 63
f 62 71 80
f 62 80 72
f 63 72 73
f 63 73 64
f 64 73 74
f 64 74 75
f 64 75 65
f 66 76 67
f 66 69 77
f 66 77 76
f 67 76 79
f 67 79 70
f 68 78 69
f 69 78 75
f 69 75 74
f 69 74 82
f 69 82 77
f 72 81 73
f 72 80 83
f 72 83 81
f 73 82 74
f 73 81 82
f 76 77 82
f 76 82 81
f 76 81 83
f 76 83 79

